<mxfile host="app.diagrams.net" modified="2020-12-18T07:13:19.398Z" agent="5.0 (Windows)" etag="PL9njqEyZlP1GsjoxqPH" version="14.0.5" type="github">
  <diagram id="qvaYYipFcBIxYqJszWY4" name="Page-1">
    <mxGraphModel dx="230" dy="1166" grid="1" gridSize="10" guides="1" tooltips="1" connect="1" arrows="1" fold="1" page="1" pageScale="1" pageWidth="827" pageHeight="1169" math="0" shadow="0">
      <root>
        <mxCell id="0" />
        <mxCell id="1" parent="0" />
        <mxCell id="Imz78E6qO1Tw3Q3wVGVy-1" style="edgeStyle=orthogonalEdgeStyle;rounded=0;orthogonalLoop=1;jettySize=auto;html=1;" edge="1" parent="1" source="Imz78E6qO1Tw3Q3wVGVy-2" target="Imz78E6qO1Tw3Q3wVGVy-26">
          <mxGeometry relative="1" as="geometry" />
        </mxCell>
        <mxCell id="Imz78E6qO1Tw3Q3wVGVy-2" value="进给力1" style="rounded=0;whiteSpace=wrap;html=1;" vertex="1" parent="1">
          <mxGeometry x="1680" y="50" width="120" height="60" as="geometry" />
        </mxCell>
        <mxCell id="Imz78E6qO1Tw3Q3wVGVy-3" style="edgeStyle=orthogonalEdgeStyle;rounded=0;orthogonalLoop=1;jettySize=auto;html=1;" edge="1" parent="1" source="Imz78E6qO1Tw3Q3wVGVy-4" target="Imz78E6qO1Tw3Q3wVGVy-26">
          <mxGeometry relative="1" as="geometry" />
        </mxCell>
        <mxCell id="Imz78E6qO1Tw3Q3wVGVy-4" value="进给力2" style="rounded=0;whiteSpace=wrap;html=1;" vertex="1" parent="1">
          <mxGeometry x="1840" y="50" width="120" height="60" as="geometry" />
        </mxCell>
        <mxCell id="Imz78E6qO1Tw3Q3wVGVy-5" style="edgeStyle=orthogonalEdgeStyle;rounded=0;orthogonalLoop=1;jettySize=auto;html=1;" edge="1" parent="1" source="Imz78E6qO1Tw3Q3wVGVy-6" target="Imz78E6qO1Tw3Q3wVGVy-32">
          <mxGeometry relative="1" as="geometry" />
        </mxCell>
        <mxCell id="Imz78E6qO1Tw3Q3wVGVy-6" value="握力1" style="rounded=0;whiteSpace=wrap;html=1;" vertex="1" parent="1">
          <mxGeometry x="1990" y="50" width="120" height="60" as="geometry" />
        </mxCell>
        <mxCell id="Imz78E6qO1Tw3Q3wVGVy-7" style="edgeStyle=orthogonalEdgeStyle;rounded=0;orthogonalLoop=1;jettySize=auto;html=1;" edge="1" parent="1" source="Imz78E6qO1Tw3Q3wVGVy-8" target="Imz78E6qO1Tw3Q3wVGVy-32">
          <mxGeometry relative="1" as="geometry" />
        </mxCell>
        <mxCell id="Imz78E6qO1Tw3Q3wVGVy-8" value="握力2" style="rounded=0;whiteSpace=wrap;html=1;" vertex="1" parent="1">
          <mxGeometry x="2130" y="50" width="120" height="60" as="geometry" />
        </mxCell>
        <mxCell id="Imz78E6qO1Tw3Q3wVGVy-9" value="" style="edgeStyle=orthogonalEdgeStyle;rounded=0;orthogonalLoop=1;jettySize=auto;html=1;" edge="1" parent="1" source="Imz78E6qO1Tw3Q3wVGVy-10" target="Imz78E6qO1Tw3Q3wVGVy-36">
          <mxGeometry relative="1" as="geometry" />
        </mxCell>
        <mxCell id="Imz78E6qO1Tw3Q3wVGVy-10" value="参考X" style="rounded=0;whiteSpace=wrap;html=1;" vertex="1" parent="1">
          <mxGeometry x="2270" y="50" width="120" height="60" as="geometry" />
        </mxCell>
        <mxCell id="Imz78E6qO1Tw3Q3wVGVy-11" value="" style="edgeStyle=orthogonalEdgeStyle;rounded=0;orthogonalLoop=1;jettySize=auto;html=1;" edge="1" parent="1" source="Imz78E6qO1Tw3Q3wVGVy-12" target="Imz78E6qO1Tw3Q3wVGVy-40">
          <mxGeometry relative="1" as="geometry" />
        </mxCell>
        <mxCell id="Imz78E6qO1Tw3Q3wVGVy-12" value="参考Y" style="rounded=0;whiteSpace=wrap;html=1;" vertex="1" parent="1">
          <mxGeometry x="2420" y="50" width="120" height="60" as="geometry" />
        </mxCell>
        <mxCell id="Imz78E6qO1Tw3Q3wVGVy-13" value="" style="edgeStyle=orthogonalEdgeStyle;rounded=0;orthogonalLoop=1;jettySize=auto;html=1;" edge="1" parent="1" source="Imz78E6qO1Tw3Q3wVGVy-14" target="Imz78E6qO1Tw3Q3wVGVy-44">
          <mxGeometry relative="1" as="geometry" />
        </mxCell>
        <mxCell id="Imz78E6qO1Tw3Q3wVGVy-14" value="参考Z" style="rounded=0;whiteSpace=wrap;html=1;" vertex="1" parent="1">
          <mxGeometry x="2570" y="50" width="120" height="60" as="geometry" />
        </mxCell>
        <mxCell id="Imz78E6qO1Tw3Q3wVGVy-15" value="" style="edgeStyle=orthogonalEdgeStyle;rounded=0;orthogonalLoop=1;jettySize=auto;html=1;" edge="1" parent="1" source="Imz78E6qO1Tw3Q3wVGVy-16" target="Imz78E6qO1Tw3Q3wVGVy-51">
          <mxGeometry relative="1" as="geometry" />
        </mxCell>
        <mxCell id="Imz78E6qO1Tw3Q3wVGVy-16" value="被测X" style="rounded=0;whiteSpace=wrap;html=1;" vertex="1" parent="1">
          <mxGeometry x="2850" y="40" width="120" height="60" as="geometry" />
        </mxCell>
        <mxCell id="Imz78E6qO1Tw3Q3wVGVy-17" value="" style="edgeStyle=orthogonalEdgeStyle;rounded=0;orthogonalLoop=1;jettySize=auto;html=1;" edge="1" parent="1" source="Imz78E6qO1Tw3Q3wVGVy-18" target="Imz78E6qO1Tw3Q3wVGVy-55">
          <mxGeometry relative="1" as="geometry" />
        </mxCell>
        <mxCell id="Imz78E6qO1Tw3Q3wVGVy-18" value="被测Y" style="rounded=0;whiteSpace=wrap;html=1;" vertex="1" parent="1">
          <mxGeometry x="3000" y="40" width="120" height="60" as="geometry" />
        </mxCell>
        <mxCell id="Imz78E6qO1Tw3Q3wVGVy-19" value="" style="edgeStyle=orthogonalEdgeStyle;rounded=0;orthogonalLoop=1;jettySize=auto;html=1;" edge="1" parent="1" source="Imz78E6qO1Tw3Q3wVGVy-20" target="Imz78E6qO1Tw3Q3wVGVy-59">
          <mxGeometry relative="1" as="geometry" />
        </mxCell>
        <mxCell id="Imz78E6qO1Tw3Q3wVGVy-20" value="被测Z" style="rounded=0;whiteSpace=wrap;html=1;" vertex="1" parent="1">
          <mxGeometry x="3150" y="40" width="120" height="60" as="geometry" />
        </mxCell>
        <mxCell id="Imz78E6qO1Tw3Q3wVGVy-21" value="" style="edgeStyle=orthogonalEdgeStyle;rounded=0;orthogonalLoop=1;jettySize=auto;html=1;" edge="1" parent="1" source="Imz78E6qO1Tw3Q3wVGVy-22" target="Imz78E6qO1Tw3Q3wVGVy-24">
          <mxGeometry relative="1" as="geometry" />
        </mxCell>
        <mxCell id="Imz78E6qO1Tw3Q3wVGVy-22" value="求和" style="rounded=0;whiteSpace=wrap;html=1;" vertex="1" parent="1">
          <mxGeometry x="1770" y="260" width="120" height="60" as="geometry" />
        </mxCell>
        <mxCell id="Imz78E6qO1Tw3Q3wVGVy-23" value="" style="edgeStyle=orthogonalEdgeStyle;rounded=0;orthogonalLoop=1;jettySize=auto;html=1;" edge="1" parent="1" source="Imz78E6qO1Tw3Q3wVGVy-24" target="Imz78E6qO1Tw3Q3wVGVy-33">
          <mxGeometry relative="1" as="geometry" />
        </mxCell>
        <mxCell id="Imz78E6qO1Tw3Q3wVGVy-24" value="时域平均" style="rounded=0;whiteSpace=wrap;html=1;" vertex="1" parent="1">
          <mxGeometry x="1770" y="350" width="120" height="60" as="geometry" />
        </mxCell>
        <mxCell id="Imz78E6qO1Tw3Q3wVGVy-25" value="" style="edgeStyle=orthogonalEdgeStyle;rounded=0;orthogonalLoop=1;jettySize=auto;html=1;" edge="1" parent="1" source="Imz78E6qO1Tw3Q3wVGVy-26" target="Imz78E6qO1Tw3Q3wVGVy-22">
          <mxGeometry relative="1" as="geometry" />
        </mxCell>
        <mxCell id="Imz78E6qO1Tw3Q3wVGVy-26" value="转换到标准单位" style="rounded=0;whiteSpace=wrap;html=1;" vertex="1" parent="1">
          <mxGeometry x="1770" y="160" width="120" height="60" as="geometry" />
        </mxCell>
        <mxCell id="Imz78E6qO1Tw3Q3wVGVy-27" value="" style="edgeStyle=orthogonalEdgeStyle;rounded=0;orthogonalLoop=1;jettySize=auto;html=1;" edge="1" parent="1" source="Imz78E6qO1Tw3Q3wVGVy-28" target="Imz78E6qO1Tw3Q3wVGVy-30">
          <mxGeometry relative="1" as="geometry" />
        </mxCell>
        <mxCell id="Imz78E6qO1Tw3Q3wVGVy-28" value="求和" style="rounded=0;whiteSpace=wrap;html=1;" vertex="1" parent="1">
          <mxGeometry x="2060" y="260" width="120" height="60" as="geometry" />
        </mxCell>
        <mxCell id="Imz78E6qO1Tw3Q3wVGVy-29" value="" style="edgeStyle=orthogonalEdgeStyle;rounded=0;orthogonalLoop=1;jettySize=auto;html=1;" edge="1" parent="1" source="Imz78E6qO1Tw3Q3wVGVy-30" target="Imz78E6qO1Tw3Q3wVGVy-34">
          <mxGeometry relative="1" as="geometry" />
        </mxCell>
        <mxCell id="Imz78E6qO1Tw3Q3wVGVy-30" value="时域平均" style="rounded=0;whiteSpace=wrap;html=1;" vertex="1" parent="1">
          <mxGeometry x="2060" y="350" width="120" height="60" as="geometry" />
        </mxCell>
        <mxCell id="Imz78E6qO1Tw3Q3wVGVy-31" value="" style="edgeStyle=orthogonalEdgeStyle;rounded=0;orthogonalLoop=1;jettySize=auto;html=1;" edge="1" parent="1" source="Imz78E6qO1Tw3Q3wVGVy-32" target="Imz78E6qO1Tw3Q3wVGVy-28">
          <mxGeometry relative="1" as="geometry" />
        </mxCell>
        <mxCell id="Imz78E6qO1Tw3Q3wVGVy-32" value="转换到标准单位" style="rounded=0;whiteSpace=wrap;html=1;" vertex="1" parent="1">
          <mxGeometry x="2060" y="160" width="120" height="60" as="geometry" />
        </mxCell>
        <mxCell id="Imz78E6qO1Tw3Q3wVGVy-33" value="进给力" style="rounded=0;whiteSpace=wrap;html=1;" vertex="1" parent="1">
          <mxGeometry x="1770" y="450" width="120" height="60" as="geometry" />
        </mxCell>
        <mxCell id="Imz78E6qO1Tw3Q3wVGVy-34" value="握力" style="rounded=0;whiteSpace=wrap;html=1;" vertex="1" parent="1">
          <mxGeometry x="2060" y="450" width="120" height="60" as="geometry" />
        </mxCell>
        <mxCell id="Imz78E6qO1Tw3Q3wVGVy-35" value="" style="edgeStyle=orthogonalEdgeStyle;rounded=0;orthogonalLoop=1;jettySize=auto;html=1;" edge="1" parent="1" source="Imz78E6qO1Tw3Q3wVGVy-36" target="Imz78E6qO1Tw3Q3wVGVy-38">
          <mxGeometry relative="1" as="geometry" />
        </mxCell>
        <mxCell id="Imz78E6qO1Tw3Q3wVGVy-36" value="转换到标准单位" style="rounded=0;whiteSpace=wrap;html=1;" vertex="1" parent="1">
          <mxGeometry x="2270" y="160" width="120" height="60" as="geometry" />
        </mxCell>
        <mxCell id="Imz78E6qO1Tw3Q3wVGVy-37" style="edgeStyle=orthogonalEdgeStyle;rounded=0;orthogonalLoop=1;jettySize=auto;html=1;" edge="1" parent="1" source="Imz78E6qO1Tw3Q3wVGVy-38">
          <mxGeometry relative="1" as="geometry">
            <mxPoint x="2480" y="380" as="targetPoint" />
            <Array as="points">
              <mxPoint x="2330" y="350" />
              <mxPoint x="2480" y="350" />
            </Array>
          </mxGeometry>
        </mxCell>
        <mxCell id="Imz78E6qO1Tw3Q3wVGVy-38" value="&lt;div&gt;计算1/3倍频程&lt;/div&gt;&lt;div&gt;a&lt;sub&gt;R(x)&lt;/sub&gt;(f)&lt;br&gt;&lt;/div&gt;" style="whiteSpace=wrap;html=1;rounded=0;" vertex="1" parent="1">
          <mxGeometry x="2270" y="260" width="120" height="60" as="geometry" />
        </mxCell>
        <mxCell id="Imz78E6qO1Tw3Q3wVGVy-39" value="" style="edgeStyle=orthogonalEdgeStyle;rounded=0;orthogonalLoop=1;jettySize=auto;html=1;" edge="1" parent="1" source="Imz78E6qO1Tw3Q3wVGVy-40" target="Imz78E6qO1Tw3Q3wVGVy-42">
          <mxGeometry relative="1" as="geometry" />
        </mxCell>
        <mxCell id="Imz78E6qO1Tw3Q3wVGVy-40" value="转换到标准单位" style="rounded=0;whiteSpace=wrap;html=1;" vertex="1" parent="1">
          <mxGeometry x="2420" y="160" width="120" height="60" as="geometry" />
        </mxCell>
        <mxCell id="Imz78E6qO1Tw3Q3wVGVy-41" value="" style="edgeStyle=orthogonalEdgeStyle;rounded=0;orthogonalLoop=1;jettySize=auto;html=1;" edge="1" parent="1" source="Imz78E6qO1Tw3Q3wVGVy-42" target="Imz78E6qO1Tw3Q3wVGVy-49">
          <mxGeometry relative="1" as="geometry" />
        </mxCell>
        <mxCell id="Imz78E6qO1Tw3Q3wVGVy-42" value="&lt;div&gt;计算1/3倍频程&lt;/div&gt;&lt;div&gt;a&lt;sub&gt;R(y)&lt;/sub&gt;(f)&lt;br&gt;&lt;/div&gt;" style="whiteSpace=wrap;html=1;rounded=0;" vertex="1" parent="1">
          <mxGeometry x="2420" y="260" width="120" height="60" as="geometry" />
        </mxCell>
        <mxCell id="Imz78E6qO1Tw3Q3wVGVy-43" value="" style="edgeStyle=orthogonalEdgeStyle;rounded=0;orthogonalLoop=1;jettySize=auto;html=1;" edge="1" parent="1" source="Imz78E6qO1Tw3Q3wVGVy-44" target="Imz78E6qO1Tw3Q3wVGVy-46">
          <mxGeometry relative="1" as="geometry" />
        </mxCell>
        <mxCell id="Imz78E6qO1Tw3Q3wVGVy-44" value="转换到标准单位" style="rounded=0;whiteSpace=wrap;html=1;" vertex="1" parent="1">
          <mxGeometry x="2570" y="160" width="120" height="60" as="geometry" />
        </mxCell>
        <mxCell id="Imz78E6qO1Tw3Q3wVGVy-45" style="edgeStyle=orthogonalEdgeStyle;rounded=0;orthogonalLoop=1;jettySize=auto;html=1;entryX=0.5;entryY=0;entryDx=0;entryDy=0;" edge="1" parent="1" source="Imz78E6qO1Tw3Q3wVGVy-46" target="Imz78E6qO1Tw3Q3wVGVy-49">
          <mxGeometry relative="1" as="geometry" />
        </mxCell>
        <mxCell id="Imz78E6qO1Tw3Q3wVGVy-46" value="&lt;div&gt;计算1/3倍频程&lt;/div&gt;&lt;div&gt;a&lt;sub&gt;R(z)&lt;/sub&gt;(f)&lt;br&gt;&lt;/div&gt;" style="whiteSpace=wrap;html=1;rounded=0;" vertex="1" parent="1">
          <mxGeometry x="2570" y="260" width="120" height="60" as="geometry" />
        </mxCell>
        <mxCell id="Imz78E6qO1Tw3Q3wVGVy-47" value="" style="edgeStyle=orthogonalEdgeStyle;rounded=0;orthogonalLoop=1;jettySize=auto;html=1;" edge="1" parent="1" source="Imz78E6qO1Tw3Q3wVGVy-49" target="Imz78E6qO1Tw3Q3wVGVy-69">
          <mxGeometry relative="1" as="geometry">
            <Array as="points">
              <mxPoint x="2480" y="510" />
              <mxPoint x="2585" y="510" />
            </Array>
          </mxGeometry>
        </mxCell>
        <mxCell id="Imz78E6qO1Tw3Q3wVGVy-48" style="edgeStyle=orthogonalEdgeStyle;rounded=0;orthogonalLoop=1;jettySize=auto;html=1;" edge="1" parent="1" source="Imz78E6qO1Tw3Q3wVGVy-49" target="Imz78E6qO1Tw3Q3wVGVy-81">
          <mxGeometry relative="1" as="geometry">
            <Array as="points">
              <mxPoint x="2480" y="510" />
              <mxPoint x="2960" y="510" />
            </Array>
          </mxGeometry>
        </mxCell>
        <mxCell id="Imz78E6qO1Tw3Q3wVGVy-49" value="&lt;div&gt;计算a&lt;sub&gt;R&lt;/sub&gt;(f)&lt;/div&gt;&lt;div&gt;&lt;img src=&quot;data:image/png;base64,iVBORw0KGgoAAAANSUhEUgAAAWcAAABACAIAAABJBCHgAAAV2klEQVR42u2cd3QV1RbGIwqIhAcWFBBRBKSjqCBIEyLSOwholK4oRaqKhCYgXaMQLHQEMUgVlKIoUm2AhihggvQmESlRQAXfb9291qx5M3NvZi5Drvr29weLzJw7c84+e3/722fOzBV//fVXlEKhULjGFcoaCoXCE5Q1FAqFNyhrKBQKb1DWUCgU3qCsoVAovEFZQ6FQeIOyhkKh8AZlDYVC4Q3KGgqFwhuUNRQKhTcoaygUCm9Q1lAoFN6grKFQKLxBWUOhUHiDsoZCofAGZQ2FQuENyhrhY8SIEWXKlIl0LxQKn9G0adPQDZQ1wsSJEyeGDBmSI0eOSHdEofAZY8eODd1AWSNMLF269NixY0888USkO6JQZDaUNcJE//79mzdvXrly5Uh3RKHIbChrhImGDRsiN6688soQbd56662PP/64RIkS5cqVq1u3bnR0dKR7HTH06dMnLS3tjjvuqFix4kMPPRTp7kQM9957b9myZUuWLCkuEenuhImIsUa9evUWLFiQM2dO9z8hAp9//vmvv/46Ih0245133klNTR08eHDoZhMnTuzRo8f+/ft79erVt2/fKlWq+NuNTZs2YcOXX37Z06/gsi1btrz55puZZq7Dhw+vXLmyY8eO/L9WrVpz5swpUKCAj9fHK26//Xav1eKUKVNw/sysMSlpk5OTY2Jitm7dOmjQoNmzZ19//fU+Xv/hhx8ePXo0pvD6q/nz53v6SWRYA8aFAvLkyWM/tWrVqg8++GDv3r3jx48nNVnOYut8+fJ169Yt8/tsBgHQunXrOnXqhGjz448/ynwwiwT2mTNnhgwZ4mMfMOC8efOmTZvmeBZeW758ea5cuRzZoX79+hBZpuV8OoMFhO4fe+yxokWL+miKxMTEcePGBcslS5YsSUhIKFWq1KhRo6655hq7HYYPH37PPfdkvh0eeeSRtm3bNmrUyK+LE1NUzbil/RSsDUV+/vnnzZo1s7MkJtq2bduwYcPc3ysCrDFy5EhmkQE4nkXKFixYEPsyl3aP/+mnn5o2bTpmzJhq1aplcrfNIN4WLlxITLps/+STTzLkZ555xq8OnDt3jmuSY9G69rOom65du3K7gQMHPhGApcG6desmTJgA49xwww2ZbDp/TXH+/PlOnTrBQcWKFbOfJffExsZu2LCBiMKX7OyAHeLj4xFfmW8HugTZ1axZ05erITnXrl07adIkx7MkYBhz165dGzdudKRXpqN06dLuZVdmswaiGtZftmyZ49lvv/0WJ4Ay8GnG4JgEOMvIvcpyH/HJJ59gfVSPy/Y7duwgwb7//vs+ynIcnZB46aWXHM8ifVEiuALNII5ChQrZ2xBpN998s0tHIdR9qWgWLVrE3AXrdhiA+HLkyEHedjw7efJkEuyAAQMWL178wgsvOLaJlB3Q1H4ViWlpaV26dGGMjmcpixA1Q4cO3bx5M6nart8BFVNcXBxu45I9M5s14NcLFy6QJB3P4uWUJ0uXLg19EWpj6reKFStmZs8NtGvXrkOHDg888IDL9tQpzz33nL8yuH379q1atWrQoIHjWZybOi605oSgmQXUafbs2TO8HYnx0peTKNkoLVesWOGXEYgW6JjYc6RFgInKlCkTuhryZAcqmg8//PASu02IQlI+Ls8RNZgiGC0SUFggw6SFxi9RooRL9gyTNX7++efwFnLatGmDTwcTZiRwapAMORhfoU5p0aJFGB24dHBrckWWLFksx1NTU6nYzUeIE9IdTA9l+JWmogIFSPPmzdesWZM7d27HBqSUevXqhfaAEydOUGclJiYWKVIkwzt6ZQ2UzoMPPmg+kpSUNGLECFl1w8t9WYNEk2PSefPmOZ79/vvvH3/8cQQX3uKXHWrXrv3RRx+57yFGw3QWy7z33nt0Gz+fO3du7969L90OpDGySLCYwtrUL6tXrw59EdT9qVOnXnzxRTd39MwaJ0+eHDNmDGqnXLlySDv0j/ti4fDhw40bN54zZw6sZjlFUB0/fpx4MHJyiBgjOeTPn9/HZQL3SE5OhrzRDuaDZKrp06fnypUrb968FO1HjhyR/Na/f/9bb7317NmzEEp0dDQT40sfSNdIrc8++8x+Ch+lwk9JSREz8m+I+IRZGIgb0eSeNTAF1TXtc+bMedNNNzFNjRo1IhP27du3bt26dOzQoUM1atQIVlN4AqFOAfLKK684drhw4cJ79uzx1w60garc9O21114jRojkLVu24ANly5bFDiQbyluoh4Pk3UcfffT++++/dDsgvUlO9piCLzZs2HDmzJkbb7xRjoSIqXfffRcZRZHi5o7eWAOC7NWrV6VKlXr27BkVCHXGb/YnOmpub5mqdevWIYRCiCUmmwYZulRCQsIPP/zw6quv2k8Jl4f++bXXXkvUuR+1GehAsijzZB4ygDWg0U2bNmEZWYDEMjJnWbNm5Y52a4QNaBrfxYyOZ7kv88L0w1+hr9O5c+fq1auTkDO8o0vWwA6kYrG/zDUhXa1aNY5fvHiRg1cEcE8AvtghxJMpmRc3IsK9HapUqbJx48YMmw0YMIA8IXaQbhh2MDejerp01vj1119h4dAxhTINVr8YgH9JcuvXr3dzU2+swTzRP2aCNBIVYI2o/yUw7MLtoRX6unv3bhoTKsbzDuyITiFJOm7TkEeVY8eONcek4+o32Z6DwcLmsiImJob7Gv2nzx06dCBpCCOQXnr06AHxX9Y1F6TWwYMHkWyOZ8XI5LT//Oc/coRUT563hz1ylNm3Rx254cCBA/J/Gvz222/EvyVNISIsbiqmGDZsmCRtyIsEgzC+fK/qYAf8MJjI5+yOHTvMa2TLli2je+HZ4cKFCzAUdGBZyrUUYoCMPXjw4PHjx4sdiAhmauXKlfbnvr5AoiZ0TMXFxZlfSHNcwjh69KhsXKSAyPCmHlgDq6G4oFtJ8vJowPJg7/Tp09x75syZstUEky1fvtwIb3leDa1cddVV9uvLss3ixYtvueUW4yDOZ89L8D3lSeZv98KN4uPjzX6DECWrv/766xUqVIgKPLwguohYN0trYYNZpwQNtlODGMDClkW7X375RfSOGcwjxb9dtaKYzIyMOqD4Jz7xS1yfEoNLMSmWgBk3bhw+h9a7+uqr+RMrUalNnDjx8tkBHyhevPjTTz/teLZVq1bExvDhw40jFMhQmKMdkAb2rhp2wALyLz5PocEAs2XLJgcR/5ZNAJ06ddq1a5dhBxL4+fPn8ZPLZARZvgkWU0g/eYSUYUydO3euatWqIpkzvKkH1qAooHZ46qmnsEtUoIIdMWKERQgQMEOHDkWdyp+MB31osHhSUlLHjh3JP9ddd539+iNHjlyzZg1XMN8RqrKPcO7cuUi+YKxh0YGOCK9YgPKols07Tfr167chAJkzDAJnB3ts7oitW7fefffdwU7h5fYdGZAyDBusEEOOFi1a1PzaItfJly+fXcHCPuhbN2u0bpZyMQu3oHiUP1u0aFG/fn1xFZdg6s0y00Cw1VNCER3k+DwOaXDfffeZdz3hSLCY43NH7ACVuHmUTsbG7UO3gUzhMrEDfMGf+DwqzL0dHKM6KkidmJ6ejqgJFlPkM/zEElPR0dF2Z9i5c2dsbCzJxlgECQEPrCEFs0ETUrDJKrExmNGjR9MtCsXk5OR9+/bRP6jOuAJzTAHJMIg9+/VJDuheg5VplidPHjzesvQYFchj8uTfsZ/QvPH/YPI49OZu+yMAY9osEg6XJY0bEYX4YgrRHTiKdA87kLKiApkKa5QqVapYsWKGWEVALliw4Nlnn3XsxsmTJ4m6hQsXWo6TWNDAjqvi8kSgZ8+eRpUO0/35559ly5atV6+epTHalWjxizXgCIJKwlt0qDwpQDzLKpKFzdGt5q1Z2JbaG8pzvPjQACwHEQKYwnH3B9meshF6NT6AQn/oleNeL+zAdLtJJE2aNMlwW4DZDhIyU6ZMISahLTkodvjjjz8QI3h4+fLlzXvAcXhyJ3zneHdm075M07hxY+SSY0z17duXGxkxRdRgLmyCZSwtV6xYAW+61O8eWCMlJQUT0I8GDRoYi44YAhVk8D2R37JlSzQbhcn+/fvJvZaLQLqUu3feeaflOJI7JibGXO+QLbGp4xsTiFJy+2VSfQwNxrU/GLp48WL37t0nT55sPojjMgFMBuE6a9YsRBC9xTJkWqlZKIwhDuaDHzJ/e/bsoQ02xE3T0tLwbH4b4mWc9wOYOnWq+SD3ggK++OILe3uyChxkxAbWg60keCxRwXCYJvjdTRp0wxrM18GDB5kUghO1Rff4CV4oi1/SGUHbtm0hsu3btxMhtIe5jh8/vn79+mCUAQYOHIh7WJQIP8cylhkRSLVrxAAtMRr5n2i0LECKHSCsYJtfzCA+M1xNww6MjgvCaMz15s2b6QbEhE0kjWMBmBRea9euHdGHHfbu3WsQ69q1aynkg13cccMIlRpZyh5TUQGiYVzG1DMXRChDsMcOt4Y4gm0Vs8DbaujGjRvJnImJiZSLlSpVErKAvWTvhmQYo4hyXMgcNWoUFbK8yGSGPH2wtO/RowcZye5MFlv4CKrEuLg4qgwmj9rVfGrOnDmEvT3GCHscF3+iS5ACpPP777+bSSc+Ph4CNY60adMG76fzZC1CZfz48aG7xEzbt8kSeASAvbTBG5gdOp81a1Y5ghQi9ZHuLOJc1slwZeYxQ7O4YY1jx44Rq19++SV6irqA0YnSNk8TRqAmklqAjtWuXVtmHDlJMDOtwS5OzEPEn376qfkgQoaDjsv+Y8aMOXTokDk2iF7i2R4VYgeXC9iNGjUKtq3ZbIdVq1Zxa0mB8q6gxQ7t27dnvGY9InZo2LAhpbfj7ngBtT/lsOWBCC5EeWKPKeojNLUlpogyDtpfV4FkUUMud1H4uTcUjnz77bdl858snSKkCSdzG3iH1IcTG0eIqEKFCuHrM2bMQI0biRdrwkfTpk2bP3++2eJJSUk4GTfy/d2B06dPk6iZOcSwPCozn4W84MrSpUt7vSw+QYqQkICVunXrNnLkSJzG/oaiUcDjysZxXKRq1apcwXxNcizlnjz/FkDZJUuWpP8kOvPcy95zogt7ms2IICKQXHoJ0saXPZ2yLiaGpQNLliyhe8w4NMrUyzoltEIeNgjRMAUUg+dYVvj79esHWRsbnM6ePQtxQ1v2okPecOVSltpz9uzZ33zzjUs7+LI3VHYtyWuN/EmWYsrwhCNHjuAqZi1DEFHvE/PIUsIEm0DKpCULa9hjih9yTX6Fh5jfLKfmbdasGeRrWSqCX8j3JGmXr3f5xho4JUmVil0So5gG/sY0TK25JSPBdYxFPng3e/bsiLeiRYui2YxmDIzfclmmirLcOI7AKVCggDlgfARcXrx4cRyRZE4dYT7FkWDbEEOjevXqcBAlGEo1PT09NjZW0r55Pcio+cmcOD2zSDYQE8kpi7BC0tM9Y08OdZC8zki2J5Ob9yNKHrN4CXme1AR/OS7fOE7upe+w2LdvH+SFc+PNcBDTTR+o7S9cuFC3bl1jzyVuA2uvXLmS2OC+9FxkDgPp1KmTRRFgLooyY7ldinNGSoFMHjKvavHz3r17E3XmfRmiViZMmODySbkvdpAHwPA+V0OV3HXXXcIClFHTp083L6WTA1JTU6nTkb1vvPFGVOB9PFKOmSAEffr0odo1+iYbqbgLNMFxc/8ha4qUXLlymbUn0oyUyZVdDsE31hDnzpIlC4WiOCisiRN3797dHPNg27ZtTLYR9rAGUYp2sFeMiBeKHTP/ySc2aOz4rqdfoIigGDEvQ65evTo5OZm58Xop4hlrMCvR0dGzZs2qUKECWkZOmVljwIAB1G4Ec506dfBsjEkzWej+OAD7tjSigrkXDSJ3IZOnpKRYNgUfPHiQ9EhYml/WkHUHzHj5bGgHSQ/XT0hIoHrq1asXRUHBggWjAmoCTSrbT3DrqMDqTO7cuRnRuHHjcCdZDseGhQsXRkRYLkuEwH1Egvwc0/EnZGR5CZ3jX331lSXe4JHbbrstkzcZo6AJZkiT/MS84/aimmENBIh5ohEaxLaZ8RGYsKp5vV/Akblz56LWDZsUKVJk+/btlilGi+HVefPmNX/kgbugMnCJEJWRBZH5vgYjZEhiIHnK4HKRguyEhzHTl7V7JB9khaEhowJcjr+6WQKwgNgmi8py5tq1a5FdBlPYH6QZLymYDxJCpFDix35xcizpRWpAbIhLudEOO3fuZHSevqfgC8ichIc8MKIiQJDLoKitCCSzf7ds2XLs2LEYH5vjGDIoJgWWdPQT1DU0JJkWJU8z+6YMO4iWrl27mp9KZg7oLWlJFl/NgyJbQKyWL/3C+ObiVHZVOD7pMOsyqjxm2aUsYi7oQ5cuXdwPIWLf8gqxTyEEfJGIGUIUDRHO7MoRcjWaOYxLIanQSpIJmR4qdoMUzKyB+CI5oKuRJEgGc3ohJ6PhyQaO16cS9PoCvuTzTPsUjYBKu0mTJrIfPyqQDPFUWQmG7CgTjHUTgnngwIGwp6xTGjsIQr+UaV4Jcgm/XqLzCubdGBRlb82aNaUbmIiMaH6tplatWmIxJFJMTAwDPHbsGHQT7PloeNERhh30u6EOoNyF4CtXriz7BSG4JUuWuHwd0AB+vHnz5pkzZ5JbSBFSp3AwNjYWYWzZ50JIfPfddwQPipSwiTItZEBeDwUQaauED3ngamRCPBulkz9//jJlysCqFlNgIigboSdvJ1Dqy/HWrVvDJm52Lv5tYbaDhDc6kdyZlJS0aNGiqP99VtW8eXPaIJ2EC+Q4vhEXF+f1g32+Q1nDGZRCzCWyP1u2bPHx8eXLl69Ro4anK+D96enp8jniHDlySCaEQdq1ayf5tn///tTe1atXjwo8UEBuyJPCAwcOmPf/Elfdu3d33NT4TwHazRBE8k4dEik9ANGbDLBp06ZiFoTVqVOnhCWN/TtpaWmdO3fOcF/m3xzwhaEF5D/QIn7CjMvajfnLmCIBoAw8xyi4li1bRvuIvO1thrKGM2bMmJGQkEDZCVlQX2T4Hm14yPC5DPIka9asYazC/rOQmJi4e/dueZTQvn17MjAyZNKkScaGC0Lo5MmTwTbR/muAHVJTU5FUwRpUrVp12rRpxYsXj2w/lTWcsXfv3pYtW6ISSXHDhw+/TG9hQUyU98He0T569Ki8bOr+A6X/XJBmZauVbItKSUmhuJPnPggN7DB16lTLvrt/JQw72E9RuFGg+fJpkkuEskZQtGjR4uzZs7BGzpw5Q3+O/FIQYi0qc5Z+/z4IZopILVuqHYJBWSMo5B05KhS/vsGlUPw7oKwRFPJev+MLggrF/zOUNUKBInPQoEEh3qpSKP4PoawRCj5+WFyh+NdAWUOhUHiDsoZCofAGZQ2FQuENyhoKhcIblDUUCoU3KGsoFApvUNZQKBTeoKyhUCi8QVlDoVB4g7KGQqHwBmUNhULhDcoaCoXCG5Q1FAqFNyhrKBQKb/gvM7GkRIu9ghsAAAAASUVORK5CYII=&quot; width=&quot;359&quot; height=&quot;64&quot;&gt;&lt;/div&gt;" style="whiteSpace=wrap;html=1;rounded=0;" vertex="1" parent="1">
          <mxGeometry x="2275" y="380" width="410" height="100" as="geometry" />
        </mxCell>
        <mxCell id="Imz78E6qO1Tw3Q3wVGVy-50" value="" style="edgeStyle=orthogonalEdgeStyle;rounded=0;orthogonalLoop=1;jettySize=auto;html=1;" edge="1" parent="1" source="Imz78E6qO1Tw3Q3wVGVy-51" target="Imz78E6qO1Tw3Q3wVGVy-53">
          <mxGeometry relative="1" as="geometry" />
        </mxCell>
        <mxCell id="Imz78E6qO1Tw3Q3wVGVy-51" value="转换到标准单位" style="rounded=0;whiteSpace=wrap;html=1;" vertex="1" parent="1">
          <mxGeometry x="2850" y="160" width="120" height="60" as="geometry" />
        </mxCell>
        <mxCell id="Imz78E6qO1Tw3Q3wVGVy-52" value="" style="edgeStyle=orthogonalEdgeStyle;rounded=0;orthogonalLoop=1;jettySize=auto;html=1;" edge="1" parent="1" source="Imz78E6qO1Tw3Q3wVGVy-53" target="Imz78E6qO1Tw3Q3wVGVy-64">
          <mxGeometry relative="1" as="geometry" />
        </mxCell>
        <mxCell id="Imz78E6qO1Tw3Q3wVGVy-53" value="&lt;div&gt;计算1/3倍频程&lt;/div&gt;&lt;div&gt;a&lt;sub&gt;R(P*x)&lt;/sub&gt;(f)&lt;br&gt;&lt;/div&gt;" style="whiteSpace=wrap;html=1;rounded=0;" vertex="1" parent="1">
          <mxGeometry x="2850" y="260" width="120" height="60" as="geometry" />
        </mxCell>
        <mxCell id="Imz78E6qO1Tw3Q3wVGVy-54" value="" style="edgeStyle=orthogonalEdgeStyle;rounded=0;orthogonalLoop=1;jettySize=auto;html=1;" edge="1" parent="1" source="Imz78E6qO1Tw3Q3wVGVy-55" target="Imz78E6qO1Tw3Q3wVGVy-57">
          <mxGeometry relative="1" as="geometry" />
        </mxCell>
        <mxCell id="Imz78E6qO1Tw3Q3wVGVy-55" value="转换到标准单位" style="rounded=0;whiteSpace=wrap;html=1;" vertex="1" parent="1">
          <mxGeometry x="3000" y="160" width="120" height="60" as="geometry" />
        </mxCell>
        <mxCell id="Imz78E6qO1Tw3Q3wVGVy-56" value="" style="edgeStyle=orthogonalEdgeStyle;rounded=0;orthogonalLoop=1;jettySize=auto;html=1;" edge="1" parent="1" source="Imz78E6qO1Tw3Q3wVGVy-57" target="Imz78E6qO1Tw3Q3wVGVy-64">
          <mxGeometry relative="1" as="geometry" />
        </mxCell>
        <mxCell id="Imz78E6qO1Tw3Q3wVGVy-57" value="&lt;div&gt;计算1/3倍频程&lt;/div&gt;&lt;div&gt;a&lt;sub&gt;R(P*y)&lt;/sub&gt;(f)&lt;br&gt;&lt;/div&gt;" style="whiteSpace=wrap;html=1;rounded=0;" vertex="1" parent="1">
          <mxGeometry x="3000" y="260" width="120" height="60" as="geometry" />
        </mxCell>
        <mxCell id="Imz78E6qO1Tw3Q3wVGVy-58" value="" style="edgeStyle=orthogonalEdgeStyle;rounded=0;orthogonalLoop=1;jettySize=auto;html=1;" edge="1" parent="1" source="Imz78E6qO1Tw3Q3wVGVy-59" target="Imz78E6qO1Tw3Q3wVGVy-61">
          <mxGeometry relative="1" as="geometry" />
        </mxCell>
        <mxCell id="Imz78E6qO1Tw3Q3wVGVy-59" value="转换到标准单位" style="rounded=0;whiteSpace=wrap;html=1;" vertex="1" parent="1">
          <mxGeometry x="3150" y="160" width="120" height="60" as="geometry" />
        </mxCell>
        <mxCell id="Imz78E6qO1Tw3Q3wVGVy-60" value="" style="edgeStyle=orthogonalEdgeStyle;rounded=0;orthogonalLoop=1;jettySize=auto;html=1;" edge="1" parent="1" source="Imz78E6qO1Tw3Q3wVGVy-61" target="Imz78E6qO1Tw3Q3wVGVy-64">
          <mxGeometry relative="1" as="geometry" />
        </mxCell>
        <mxCell id="Imz78E6qO1Tw3Q3wVGVy-61" value="&lt;div&gt;计算1/3倍频程&lt;/div&gt;&lt;div&gt;a&lt;sub&gt;R(P*z)&lt;/sub&gt;(f)&lt;br&gt;&lt;/div&gt;" style="whiteSpace=wrap;html=1;rounded=0;" vertex="1" parent="1">
          <mxGeometry x="3150" y="260" width="120" height="60" as="geometry" />
        </mxCell>
        <mxCell id="Imz78E6qO1Tw3Q3wVGVy-62" style="edgeStyle=orthogonalEdgeStyle;rounded=0;orthogonalLoop=1;jettySize=auto;html=1;entryX=0.5;entryY=0;entryDx=0;entryDy=0;" edge="1" parent="1" source="Imz78E6qO1Tw3Q3wVGVy-64" target="Imz78E6qO1Tw3Q3wVGVy-69">
          <mxGeometry relative="1" as="geometry">
            <Array as="points">
              <mxPoint x="3060" y="510" />
              <mxPoint x="2585" y="510" />
            </Array>
          </mxGeometry>
        </mxCell>
        <mxCell id="Imz78E6qO1Tw3Q3wVGVy-63" style="edgeStyle=orthogonalEdgeStyle;rounded=0;orthogonalLoop=1;jettySize=auto;html=1;" edge="1" parent="1" source="Imz78E6qO1Tw3Q3wVGVy-64" target="Imz78E6qO1Tw3Q3wVGVy-81">
          <mxGeometry relative="1" as="geometry">
            <Array as="points">
              <mxPoint x="3060" y="510" />
              <mxPoint x="2960" y="510" />
            </Array>
          </mxGeometry>
        </mxCell>
        <mxCell id="Imz78E6qO1Tw3Q3wVGVy-64" value="&lt;div&gt;计算a&lt;sub&gt;h(P*)&lt;/sub&gt;(f)&lt;/div&gt;&lt;img src=&quot;data:image/png;base64,iVBORw0KGgoAAAANSUhEUgAAAa0AAAAzCAIAAACrL8DnAAAX5klEQVR42u2ceZxN5R/HrxZFRFmiJFumEqKUPaUySNYs2UUkxk7KCGVrRshaY8m+F9lJ1tBU1NTInsqeCmOdtt/7db8vz++8zjn3zrl3xrnGfT5/zOvOWZ/n+3y/n+/n+5znnAz//fefR0NDQyOMkUHzoIaGRphD86CGhka4Q/OghoZGuEPzoIaGRrhD86CGhka4Q/OghoZGuEPzoIaGRrhD86CGhka4Q/OghoZGuEPzoIaGRrhD8+A1gYMHD27fvj1z5syhboiGxnWCOnXqOD9Y8+A1gSlTpmzcuPGuu+4KdUM0NK4TvPvuu84P1jx4TaBDhw4TJ04MdSs0NMIUmgdDDyri9evX9+3bN9QN0dAIU2geDD26dOnSqlWrUqVK+Tnmm2++6d69+wMPPFCyZMnixYtXqlQp1K1OB3jsscew1YMPPliiRInIyMhQN+dax4cffrhkyZKIiAjxsdKlS4e6Re7heuBB3H3YsGHPPPNMQGddO6XoCy+88Omnn/o/ZsKECdWqVStUqNCsWbMSEhKGDx8eqta+/vrrNOOVV14J6Ky4uDg8LdCzUoMTJ07s2LGjevXq/I2Ojp4+fXqOHDncNpYXDRs2xD8xWkBn0ea3337bzXZKRFy4cGHw4MGFCxdu06aNq2a6guDMxVnz588P+qbpngdnzJjB3+bNm1t3nTlzBk9KSkpCTH399demvQcPHiSkU2O7NMHevXuXLl3ao0cP/4e1b98+Y8aMY8aM8Xh5n7x9zz33uN9aSvgVK1YMGjTIdu977723cuVKPPiDDz6w7q1RowbD8eijj7rT1NmzZ9MeGfeXXnqpSZMmtWrVct9iDFavXr0aNWpk3XXkyJGxY8fGx8ez15ohyHz4xsiRI91sKjUHtsIhyVsp5maXzXX06FFahQfWrVvXaq7Fixfv3Llz4MCBwd03ffMgyig2NpZUb7uX4WQsCbxJkyYRmdYIpBDYv39/QM+V0hz9+/dHyVauXNnh8XA6nLhmzZo777zT5aZeunSJW5M8qDStewnaqKgoKLJjx46veGE6YNOmTaNGjcLmOXPmdLnlRFdMTMxTTz3l8n0XLly4YcMGyM52L66bKVOmqVOn4pnWzJGcnIwNy5cv76aIFjBG0M2UKVOuNXNlzpx5z549X3zxhVXWeLzzS8WKFQvOXOmbB0lfuDgZzNfe/PnzY7u8efPaaoHz58+3bt26c+fOIZxugwQha+crB8l4xYsXr1evnvtNJTwOHTo0ZMgQX3u3bNnSt29fJCGWtz3mrbfeQsY69FQ411ZXBoqPP/549erVaXKpgHDq1Kl27dp98skntnsp25GoGISUFhkZaeuBmzdvpkSdOXOmk8yB/R/1IvUtr169OlLaNtuF1lwDBgzYtm0berBo0aLWY3bs2NGvXz9UURCJNh3zIF7SrVu3RYsW3Xfffda9hw8frlOnDn7mvxqaNm3ad999x6iHpAtURpS6w4YNc3i8iKmQkCBu2rx5806dOtWsWdP2gIYNG5KNMbifi2Bq5CQlzC233JLiHStUqEDmT2WzRT7byoerDQYLo73xxhu2e/HboUOHkgLvvvtuPxeRh2NOMsfo0aMrVqyYeh5kHMm1LpOg++YyIVU8+Pvvv4dq7hmMHDkyPj5+zpw5tnslAND2JUqU8HORzz777P333w/JVIjHOweUO3fu+vXrm7bbGpbulClTpm3btsuXL6coLleunJtNpWDp2bPnunXrsmXLZnsAwty2HDbijz/+eO655+bNm1e4cOEU7/jss8+uXbvWeQshO9pg3MLgLliwQJQgYeZygdm4cWOGzFcxPmjQIOQzYtD/RUaMGHHmzBlfE7JGQBPY1jkPIu0LFChg2li1alXu+Mgjj3DH/v37u2muli1btmrVyjVzmRAkD54+fXr48OFoVFiGSgfV6r6k6t27N7LC+kwNBsTp+ZGYmIhC4QcB4Ms/9u7dS1lNvN1xxx0ut9/j5Q6qNop3tcWXYdd5QTLct28faXPWrFkuNxXyQjuvWLHCuoto93jNLkbmrx/Goebq06dPlSpVUryjk8foAjIZFiOEaAPFQfHixSkCDh48iK7hdgwxuvvJJ5/0NX9yNXD06FHaT0mLPDHtio6OpoJjKG+44QbZ4qdmnzt3Ljb3NQNuBLRVu3ZtJzz47bffYrELFy7kypUL6iFYpAFxcXHnz5//66+/9u/ff/LkSV8l6lXC008/PX78eKu5aN78+fMLFiyYtuYyIRgexEZdu3YtW7ZsVFSUxxsGtg9krSA/B7q6xeN7gUuzZs0qV67sK+Qw38aNG1Pki+Tk5PLly0+dOpXgse6liPvzzz/9XwFPCk6acWUYQSg7RcMaD/N4mT2IO6YG0PGePXt8uaCobydCDz3LqLVo0SLFOzZp0sSX2Deib9++xC26T6wEKBQqVarEj3PnziUlJeXNm9fjZWfXHlUrg/ip40iB9erV81UGKmzfvr1Xr16bN29O8Y746osvvphiHzdt2oTFYmNjcVoha/WUJoQ+Bv+SqNw0lwnB8CAhQYtxenkfVuSAipCYmBj80irBmjdv/uOPPyq6FKMvXry4WrVqN954I5UgCcF2tpjEDs1bTUDd1L17dxK+bSMbNmwYERFhVIu+5svJogSn+4sqyFqwMLd2aNjQgjDLkiVLv379bPeiYbdu3bpkyRK1BdEaGRlpzY7ULLicdRqRHPDrr7/K73/++Qf+Ioe99tprxmNgNFOckPzRQUS1CEycCgm2atWqkH+xQniQTHzbbbdZ9+LS+CfGNH4LgC2oBBP7HD9+/Pnnn7ddJsUt1O+LFy8uW7YMHjQdY6VF4wIsj7PZDBcgBrmq5vKPgHkQB6UAqVChwujRo/kXaoPgjKY8e/YsjGadSEICmPQqIXHTTTcJwSEVceIZM2bYzqCjj7hLmTJljBshTcIPNWc9XuahTIZThZsJLVu2pEfIugDHLrXAaymR1PSlybAeL9FzTMh9VNClSxe0nghV275Q0RizDtYuVKiQdbaB3pEmVRwqQKNSBWfIkEH+4hI1atSA0YgNlJ3HG9WmeuLll19GpXLkrbfeKo3Enyn6Qm0tz65du3B45Akebt27du1aRBmF57333mu0mNU/L1++jEvYTnOTmdRvzEXHqRzJVZiLREJ5y3YKDuMpiEGkQ8eOHWWNdEJCAj9sl5SlU3NdunSpYsWKKT4VsCJgHpQJtVdffRUX9HgF3TvvvGM05Zo1a1auXGla/4kWi4+PNz0YJXgYBhF0aIG6desuXLjQOnfr8YoLRn3SpEnGjRiuZs2atksuuReDTVV1//33yxZKAGxku0gd1u7ZsychZ91lqhTA33//newFfiZ/Ydsg1AfnUtcbV3GbDAsvQDoOfZQSO63mN31lC8jl8OHDtmstibonnnjCuPwVTmdACxYsmClTJtPBxCFNJQGk2BIKJQSC/2OgRVT/uHHj5F9ciEKvdevWTnq6Y8eONHl1DN+2PsGHuJGovpZ5TpgwgUL+888/V1uQabaz2OIVyN7cuXP7bwa+inv7n3eSteVxcXHyEidjijRx+DCd1hIpqTcXCtR6x0DNhVkoDrJmzWo6cvfu3YSVE3OZEDAPiuBX8SkzMvKoTrqHKMDRoTO0OgMjh3Xu3BnBZRxmEZL07fbbb5fr0Af1sMW6dswaFQMHDoSACD9rIxlvYkOtupB78cOUUjzecgwG9EU3CA1bI5B4SVw3e2F6RmkCQj1PnjzW7QTPTz/9ZHyNxJdhocWYmBj8QypT0oapqRz222+/vfnmm6rNpAFUef78+bk7ojKg1ZGcSEEKHZu2I9bmeGE9BUXWtGnTjz766OGHH5YtMgeCJ1hnLWzLGVtwLgnV/zGMHZJfriajTJDv3LmTOCHpqjRmvR31ChwtxQRlF73DVhg5e/bs+G27du2c5zYKGup3ayEGIyN+SQbWUxh3MqjSrcQtSo0ixpp3GU3G3QlVOeFB5VTyr0y8yINmNh44cADr4a5du3Y1nYiT001F98RXYmIi+U+ERYr3NaJ27dqEuXUe2bm5iJ0hQ4bYLj7HYUixQSyTCpgH9+3bh/loGVpM1iV4vH6GdhWhjqNjFxQWRSuSXipT/o4dOzZfvnzqOpKaULBEEXIGXTl37lw4EYvTYeQkd4HI1EQSPLh06VIhTQHnypMvayOpuI8cOaLMxOiSVGvVqsVdjFfwXFGOKa5LChqNGzemX9btZAW0sPE1EjEsNsQpjYbFjCIb0S/8a3q+DGB8tsPI8i98SsLApDAgqpMgZ0tAk4wMJXRgmoXg7iQz2wV9y5cvZ5iU83EkTkW8tWzZ0jRr8e+//0LKRJSvRYhGEHV01v8x6FMUOhekpJoxY8aXX35JM6pWrQrNSUvouPVJsaRkuiP/YiKccOLEiRj//PnzuARMSqSpYsI/OJdctWXLFtN2inSGuGTJktZT4AIsoNi5vRcfeGE60o+Tm+CEB4Um5HEWx4v2z5kzJ/WWNAaLDRgwwPSYniy7efNmo+alWKFhyEORXRyPOnP+wSSyl3XhQUDmopTkplaz0Cn6GMST7mCekxAMGAJrkvDLli0r9Iff5MiRY//+/fSHwPB4NSB1imhp4mHDhg0ZM2ZUF6E+QlKhIIoVK3bhwgWlWbgy8ofseubMGSputUaaq5HtH3/8cXUFwnXUqFFyLxNwdLzfWB9hICo16yIbIg2WXLJkibFtaYX+/fsz3uPHjzc2WwDZscs0G0LfcXo8TAw7ZswYynnsKYtaiU80F1cznoKOgPVMZSYdj4yMlCpVpmsDnQMaPHiwEpgCEc62D9Zxx/Xr1xudj8iBGqyrXmTC29YgVkBeJEv/x5w4cWL16tU0gCBp0KDBwoULJbZVzJBpcCfKdmMbMC8dMV4HJQIXKPfA09CDzpOH6DiT6oyNjUVgWr9WICnKNCJIsHLlylkneWAlMrQT+UwYPuOF/8OoPWlttmzZyK84G/9SvSkKY2hIqMhh4yl9+vQhfiEjtUUeNKsKQN5ocK7CcFrShunJZ0DmioqKQmNZzUU+TkpKCmINXxq/T4IjJiQkIMegNsIGlpGCnxTNb/XkhBIAszJyVl0gaYoDKBu5jpq242BCyDihI284TJ482SjlJAyIfHgZKjEaDnnCXpNLBff1FCcgtIoWLQpDcV8lPQSrVq3CD2D5gC4ILVIdIDAp3FDW8kCJ68P4Ru+XmVY1A4DZ+S1fo5D+mmZpZYHxpUuXIC81aQBHlypVSlacKJC6kEjGkpnykz727t2bEmnEiBFqO9oKd2TQTRNw06dPJ/Ycumnbtm1NM8KB4pdffiGL0H36iJyR160wyPfff296YN2pU6dq1arJmgGpr1WJQK5ll3q/gmuSvWQXR8p2rrl7925TYCMXYAqyrLE9nAtfTJgwgUhRz0ZPnz7NkCEsqFeMrkgO69ChAwlJlsH6h0Me9A8EBA1A0NA2Vb0RTYsWLTJOQJs+xCCvWkr3ochly5YZe4En4CdEJQGLBXAJMjoVT4rm4kTEPqSJO1nNReo1rY2/fPkyAxfca7JpzIOEBOyDz8E41GtkM34z8ESvfMxHDpNZDzU5aIT0Td4lwNxqOQtsgk+b4koym0oLMv1B6sAvuZ3xSJm+NC1gREuiC2BSX+9IpAbSEfIbxenMmTONuyBlmkFGDeiCjDEj3aRJE8rkFi1ayNQbjovqND7/wTvJH3SWXJKYmDhy5MhmzZoxCtIezDh06FDxVLbAyChH8jn1ID4KXUpgU2AikE2fROQw3FQ99JcJTa7DRahPixQpoo6URwc9e/YkyauNKEqZAzKqMz/44Ycf1IRjcEAqQiLEGxFIxSerUOl1pkyZTB8oQp5jFmKVPtJ4Akl82OP11YiICBpPT+H6rFmzUoPjilRwjAJ5iNxAHQ21WWf3yBxNmzZVQobBolOkB3jNuIKSGy1YsIDoYLtxJoFMiZ7w9UK3CejcQL9VZYIs4sMz8QGSrqRSMhweYnqxZ+DAgZAUg7tv3z4Mi+IWz8ECDNm6devQN3igkBScQJmYPXt2PEqG4NChQ4SnkfJszaXWz+JyJnMRsxQcjIXxRWMULpnDFPgOkcY8qB57SRlFVSLJHycrU6aMcBDGQuthWT8Ll6xvQUFkeCTWNB1Jsho7duxDDz3kuVKeMH7Ie9OEq8w0mZ7rwbboedsnxWkFoWbTgiaqQrKZ7VIpXxB9TcmMr5NCKAokQ9B9soXxUiidw4cPozvYiAJSWReb4KwkJNydgaANBBh7qTtgga+++spoc5x7z549cK51fDlX1qnJezv169eHcLms8TAoVRjWOJWJqQsUKACDXD1rm4DvZcmShU4Z3+GHy6Awk4ImPcgEtNEnZZED9EQY58qVC1qn+/LaBsH5888/t27dWh5iolCwifUtQDx21qxZqgaXeUDrBBwCX16TNwoZ2ITARkw4nKZMPahRZs+eLRMvOBtiHNkLvdJlUyInjhhcURXnzp1Tn9XAM7du3UreRcchokX3SNFg9C6cmYxofQhpNVeePHlogKpmBPJ5lK5duxpzBndBCUIFwZkrjXnQKLhwPvXhB3pC6gjivT91WT9PzYxP4lWpkiLQROhB0ngadt8KykDqO+OzNhTH3Llz1VIPhyAg8UWZGFY+6vHOf61cuVLxIIUzUYojWt8hw/7Ca3gPHqPcxeR8Amia422zFEoKF5SkDd+Rk50s2UlISKC0CdoBggNGwPIoFDpIOMksKuyPw0D96jAKUpzBFGyeK7OZBPmcOXPoMjrOYyiBYS54k1LO453DatCggTycMUGyhUw1EsCc63CiFjvDzqmscwMCWfb48eN0jcHq16+fkDUBhcWMxhHZaFweoIAuJt/g8DfffLMs/xKsWLHCqDZkUaRtOAdtLnIermia2XQO9743QwbA4awLypwAx/Uz008+N62GcQLXXryvU6cO+VCtvIMLyPy4eEAXgafgOBoMPfXo0QMfFfaHXkeNGqVkFyVbp06drMuDPN73z1DlnMW5UhdDdlR8JANEExRJnUKoS22FKMiQIYN19YwgiBIs9VVboKDmaNOmDX30eNcwQGTTpk3Di9Dm1HrGyiAqKgp1TPIwXQEPyZs377Fjx2g5VytdujQeSJVXpUoVoprakAQgC8uJXgpJ4UQrfC3J9I+jR49epTUMvgADopQbNWpEkb5r1y64TCZGkfzGBUx0h9rT+iifIcYCePv8+fNJM/JSmcdbsnBlCF052IkTJ6RwTkNzpTKc3eNBSndSaxAz37YP49IRSKdwjVpxgm+hLwL9iqpSYSJSxBr8JRopkGXa9BsvJJ368iTjwkwyE8KQgoJ4zpcvH+lXLfejBnzOi1AbL3ig19asWSOdlXeZZB4gMTGRsRADYsxt27YRvfJmrq3RTO/tks+yZ8/Ov1iS37IcAuKAKKHIUHc6VVALNtG5kBTaUKxnrLfEx+jvsGHDbM2l9sq/cCjOSd0g7CYXlBfVQ/WxO1u4+v3B4ESB+19MSlsQjYSfLBahcIiJiUlxOYgVxiRJqYLcQ8SJceR7DZ4rX+KUY5xkVPI2EgmOPnny5G1eqF3IHHSl7dcu0wuMzoZlKP9lGebFixfp2uTJk+UY43c0HMqQAQMGIKgRazNnzpQHfUQ18jlde6nHO8shhYWpIMVcqDyp0EkbaoWZE3NJ8JpesoRnk5OTrZ+bCyHS8XdY0wvkkVHTpk27devmv94MDkhF69xWaoBuoiayfVHn+gACx7gkyzlkUVdsbGyPHj3kxRiP97l2dHS0y1+pchPz5s07cOBAit96cY6KFSuShyIiIkLds/9D86AbaNOmTVJSEvUCbIgeTNt5n3HjxlHrmdZXBw0kEnpn0qRJV2Nh+bWDRo0axcXFWZdt+cepU6eQfli7ZMmS6hMGsCo8aFxmfP3B/wR9QMBuWM/Nb0E6geZBNyCrZ5AM7du3t/2UaSoR3IcdbbFlyxbStdsGch1nz56Nj49PE6OR3qwfvLr+QNoI+mmsEdfmNJfmQTcgHzii0jx27Jj1JXYNDY3QQvOgS6hRo0aRIkUgQZeXj2hoaKQIzYMuITo6et26dVu3bg11QzQ0NMzQPOgS5LOAafjQTUNDI62geVBDQyPcoXlQQ0Mj3KF5UENDI9yheVBDQyPcoXlQQ0Mj3KF5UENDI9yheVBDQyPc8T8ML3J8/gMKCQAAAABJRU5ErkJggg==&quot; width=&quot;429&quot; height=&quot;51&quot;&gt;" style="whiteSpace=wrap;html=1;rounded=0;" vertex="1" parent="1">
          <mxGeometry x="2832.5" y="380" width="455" height="100" as="geometry" />
        </mxCell>
        <mxCell id="Imz78E6qO1Tw3Q3wVGVy-65" value="" style="edgeStyle=orthogonalEdgeStyle;rounded=0;orthogonalLoop=1;jettySize=auto;html=1;" edge="1" parent="1" source="Imz78E6qO1Tw3Q3wVGVy-69" target="Imz78E6qO1Tw3Q3wVGVy-72">
          <mxGeometry relative="1" as="geometry" />
        </mxCell>
        <mxCell id="Imz78E6qO1Tw3Q3wVGVy-66" value="&lt;div&gt;*=b&lt;/div&gt;" style="edgeLabel;html=1;align=center;verticalAlign=middle;resizable=0;points=[];" vertex="1" connectable="0" parent="Imz78E6qO1Tw3Q3wVGVy-65">
          <mxGeometry x="0.2177" y="-1" relative="1" as="geometry">
            <mxPoint x="19.79" y="-9.03" as="offset" />
          </mxGeometry>
        </mxCell>
        <mxCell id="Imz78E6qO1Tw3Q3wVGVy-67" style="edgeStyle=orthogonalEdgeStyle;rounded=0;orthogonalLoop=1;jettySize=auto;html=1;" edge="1" parent="1" source="Imz78E6qO1Tw3Q3wVGVy-69" target="Imz78E6qO1Tw3Q3wVGVy-74">
          <mxGeometry relative="1" as="geometry" />
        </mxCell>
        <mxCell id="Imz78E6qO1Tw3Q3wVGVy-68" value="*=g" style="edgeLabel;html=1;align=center;verticalAlign=middle;resizable=0;points=[];" vertex="1" connectable="0" parent="Imz78E6qO1Tw3Q3wVGVy-67">
          <mxGeometry x="-0.1331" relative="1" as="geometry">
            <mxPoint y="-10.03" as="offset" />
          </mxGeometry>
        </mxCell>
        <mxCell id="Imz78E6qO1Tw3Q3wVGVy-69" value="&lt;div&gt;计算未修正传递率&lt;/div&gt;&lt;img src=&quot;data:image/png;base64,iVBORw0KGgoAAAANSUhEUgAAAJsAAAA1CAIAAADZFQ5FAAAMOElEQVR42u2bdWwU0RbGtxBcglugxS1IcC8ETaG4Fi/FnVIo7l6KtUB5SHGH4u5QimuA4A3FgmtweL/sfe9mMrLtlpbCdr4/Nrt37ty5c79zvnPOnVmnX79+WUw4EJxMRh0MJqOOBpNRR4PJqKPBZPR/uHDhwv79+319feN6Ir8Lk1HLs2fPJk2a9OHDh7Jly4aEhGTIkKF///6lSpWK63lFE/Gd0a9fv3bq1Cl37tzjxo3j53+sWL16df78+W2fSDfOqlmzpl2X69atm7e3d4ECBbTtCxYsiPSK2bJlc3d3t90tvjO6dOnSwMDA4ODgokWL8nPq1Kl79uw5fPiwODpkyJADBw6MHz/ezc1Nedb27dvDwsLwbNmtRIkShw4d+vHjx8+fPxMnTlypUqV27dppL3fv3r3JkycvXLhQ2ThjxgxoVvVkzHLlyiVKlEhJYZUqVVatWuXs7GzjjuI7o23atHn58iUs8v3z58/169cvXrz49OnTZYdatWqtWLEiS5YssuXFixdBQUEjRoxQjtO3b19cFrkWP0uXLo2tFClSRHtFzk2SJImnp6f4efz48Rs3bnTt2lXZ5+TJk3v37k2YMCFXr1Chgmw/c+aMn5/fhg0bbNxRfGe0cuXKFStWnDZtGt9v3rwJwbgLzpEnTx5aHj9+3LFjx3379ilPQf0+ffrUr18/ZWO9evWGDx/OUOInjNqQbnR+yZIl4vuAAQNatmxZvnx51SX4VNEsgD63bdsWZzW6o/jOKEvf1QqLIoguW7asYcOGJEp4Q2ho6OXLl8uUKcO6i3SpmxUlS5aUg7x796569ernzp0TP0eNGkV4njJliryEPCRbEPZUqVLxHSPAI1VHiZcIRq5cubTBlbjg4uLSqlUrozuK74wiYm/fvp0wYQLkvX79GkZZfSR0zpw5HB06dGjmzJnR0vPnz3NIrG/79u1Z1qxZs8pBOArHmAVh8unTpw0aNGjSpInFyr2Hh4ePj0+zZs2ojuAYZRbtXl5eWAxpNmdt2bJFNStIxYmLFSumnTDz5Co2qqz4zqjFmuaMHTtWuBHfr1+/3rp16xw5cnz//p2sZN68edBA8pIyZUrhylqfo8/z589Hjx6tHfzEiRNr166tU6dOtWrVhFNaFKKqNBQltJeQMDpF4g8xilkJ84w6mHrcFoWkIaRI69evt1gjX69evZycnBBbBHnx4sWUrbInXks81oY9kSpz44Q9lFySNHLkSMSW/Bkf7dGjx6ZNm1Q3PnfuXBlocWhsBR0WP5nP7du3idlG0/4TjA4ePJhUXpQHWuzevTtnzpyFChVStWOJjx49wntie3pGYAJv3rxh8hEREY0bN4YPElTqHHjq0KGDnDDG2qJFi4CAAGVSKg9Bp3C4gwcP1qhRQ7QjwhMnThRVqaur67Fjx1TXRf+lrpKdSToBJxJfURGjaUfOqAgt4vv79+9J81KnTp0sWTLZAU/SzcoEuH/igdEMWAuWCZvVFRmSOmISfWKdPYOZk8HiXh8/fqxatSoEUAvSzif6ycREH1Yfp8mXLx+LoCsqWrHhjpYvX540aVKL1b/HjBmjFLDu3bs3b95c0I818KlcHFwWwSAbN5p25IySJhBUWHehM1yD+Qkdx3yI9tRMlHG65549e5ZiTmQZWhC0MBeWhtFCQkK4iqrDqVOn8FFGUEpcnAOXRQalKtoLbhmOZSAkMcYaxHYE7cgVliF1mKxt3bp10mHu3r1LtbNt2zYb40fCKNU3mR5rKn6KpA6zgmY5P0JI4cKFdU+ntkOvjIonUdLNnj2bElurugKITMaMGW1oQJyA2+euoyEeHz58QK6CgoKUQgqdYoVZW7yFFExKGqUU36WXs54FCxa0vRqRMLp582Y+RS5use5XcQ3lbggSMXPmTKUIS5BZkLirgoQEtoK2NGrUSBqH0QTAypUrY5qU3wU+Svpqb7qnuxuM1O3YsQOeCGoPHz5UGjcShZIJ1aX+4btuRq1EJIySqikvjzWhA0qvZ4pGJrPTCjJ73RsTnxgdZlvKCt1BMIuBAwcePXo0QYIEMciHA8OOXPf+/ft4FSEzUjMRgLDw8HC5na0E5sYnVFHa84UcwYhR8vu6desSV1xcXLRHkaNIp/HvPheLHuxgdOvWrePHjx86dGjTpk2j0p/OiRIlIhvUPerv7x8aGipUXQJV0SZZ1atXZ6hKlSppBzEZ1cIORllWSDXandKiT58+hISePXvqHiUL4FO59wGdT5480Wo4xR+pPOlYzN65l5fX169fY3bMOIHMWwXsYJTUjpKZTCd58uSqQ9RkadOmVTUS1alcybZ1R4Okhg0b2k6LBOhGXRjj6e7p06djdsC4gqo2jSqjYmeEFJdEV3tU9xE8RTShVzfoPn/+3M3Nbdq0aSiqaCHoXrx4kaCrsgzcqGLFivLxiAojR47cvXu37ZkzsXglvFFllKKF0kW7snBJukSwJMNW7S8fOXIElaa20Y4WFhaGJu/atStTpkwW60ZgmjRp9u7dSxBVrf6tW7coyLRvEZgwQiSMUirJnVXSEGdnZ+r97Nmz4xyyj6+v76NHjyjOOnfurDz37t27pFFip1sFpJ+cKCQkRI6Ma6IBkJo+fXplT8onzIXOtl/F+Gtxzwp7X0eyvW9jG5H7qG4+KT2Ja7PoefPm/fbtW8qUKZUa++XLl0aNGvn5+WlfzsBBs2bNOmzYMNmCRF+6dAkZUPVctmzZ5cuXte3/BFi6QYMGYY4okPZoRETEyZMnOVSnTh3VoUOHDiGKlPKJEye296K/++xFbFB5e3uz6Not6YULFzK+FGpuAIYQatIlQqayICGFxgsZQfks9+PHj56entBv4yWMvxZki8QL8eBMt4MIUnxu27ZNuSkogLkjh0Z5pQ3EzNM0o52jFy9eeHh4kJuI3TLx2gemR+BUZUxz5szBTVVxms4nTpygPebXO/aBa3L7Ril6cHAwqka1hhEvWrRI5BNKoNVt27ZdvHix0Y63EWL9+SgzXrVqlZRNgiXGi6dqrVJ7S506dfL39/9HM1UKaB8fH6PaHe3Jnz8/eYaNEVA4igJlbIoK/sQT7/NW2FtQ4qC1a9fOmTNnbE8vNkAgxBZ37typezQ8PBzpCgwMtG2s1ALUirqppQ2Y7xkZApEgPTl69Cj5XePGjcXjkSieSxC5c+eO9sGwrB1kzmH0nBxcuXIFldLd0rEBk1F9QKd4+6RevXoXL17s0qVLkyZNoi6AZH+ERspo3aPIz4YNG/bv3297EPHSaFT+sqGEyag+Ro0a5eTkJPzpxo0b7dq1U+5w4WEbN26EkmbNmn369AnK3d3dlR4Mo1R0lC66gzPstWvXlHLKJfip3V9zc3MbOHCgXeWsyagOqLL69u0rKcSfpk6dum/fvnTp0sk+a9asIQkXe5BiU1OZqIu3EYxUmqQpffr0yt00sceifX5uexxdmIzqQLyqceDAAbEz4Ofnd/XqVVURNXz4cBcXF7nWlJUwJOtmLCBBggRGPkqF2rlzZ2JkpDPBUAjhJqO/i379+lFKijf/QO/evfEeqkOkOCgoSDQ2bdoUPYQbiMeJVZ6EhGIEunH0wYMHhGSK8rJly4oWaphbt24FBASoKjoRR42eUhjBZFQHZC5btmwhUpJkil0R1O/9+/dZsmQR73Sx1g0aNBDfxRvuqnw1LCwMWdZ9CZLCZvDgwaTQKVKksPx/c4Yy3dfXVzWIyHWVrh8VmIzq4PPnzxMnTkyVKhWu07Nnz+PHj//8+ROXlU+WYAUm1q5da7GGQEpPVFo5QkREhJeXl+pPbQKcSJxWPpSEOWQAX1ft4lKPogp79uyx6+VWk9HoYMqUKXAsihnV+7cSpD8ES1dXV1U7blesWDH5T1OLNeh++/YNqZd/jBFgZMT/b9wzcjyQrYwYMUL++dBifa5OOJw8ebLss3nz5uvXr8s/DguxFRpLlFWmtRjEnTt3EOpZs2bJRgpiT0/P+fPn2/tMzWTUPoiwKlIV8eYtfFDD4GQ1atRQeSSOSJ0qqsnt27eHhobS4eHDh6pMhwGR9yFDhijVlazq9evX0XiMaDIai3j16lWvXr18fHyEN+O1qVOnjsp2Af4KzcHBwdG4qMlo7AI/u3//vvIP4VHB7/zT0mTU0WAy6mgwGXU0mIw6GkxGHQ0mo44Gk1FHw38BVuv78TvcEg8AAAAASUVORK5CYII=&quot; width=&quot;155&quot; height=&quot;53&quot;&gt;" style="whiteSpace=wrap;html=1;rounded=0;" vertex="1" parent="1">
          <mxGeometry x="2500" y="560" width="170" height="80" as="geometry" />
        </mxCell>
        <mxCell id="Imz78E6qO1Tw3Q3wVGVy-70" value="&lt;div&gt;测试裸适配器时*=b&lt;/div&gt;&lt;div&gt;测试手套\材料时*=g&lt;br&gt;&lt;/div&gt;" style="strokeWidth=2;html=1;shape=mxgraph.flowchart.annotation_2;align=left;labelPosition=right;pointerEvents=1;direction=west;" vertex="1" parent="1">
          <mxGeometry x="3320" y="30" width="50" height="590" as="geometry" />
        </mxCell>
        <mxCell id="Imz78E6qO1Tw3Q3wVGVy-71" style="edgeStyle=orthogonalEdgeStyle;rounded=0;orthogonalLoop=1;jettySize=auto;html=1;" edge="1" parent="1" source="Imz78E6qO1Tw3Q3wVGVy-72" target="Imz78E6qO1Tw3Q3wVGVy-76">
          <mxGeometry relative="1" as="geometry" />
        </mxCell>
        <mxCell id="Imz78E6qO1Tw3Q3wVGVy-72" value="裸适配器振动传递率" style="whiteSpace=wrap;html=1;rounded=0;" vertex="1" parent="1">
          <mxGeometry x="2420" y="789.97" width="120" height="60" as="geometry" />
        </mxCell>
        <mxCell id="Imz78E6qO1Tw3Q3wVGVy-73" style="edgeStyle=orthogonalEdgeStyle;rounded=0;orthogonalLoop=1;jettySize=auto;html=1;" edge="1" parent="1" source="Imz78E6qO1Tw3Q3wVGVy-74" target="Imz78E6qO1Tw3Q3wVGVy-76">
          <mxGeometry relative="1" as="geometry" />
        </mxCell>
        <mxCell id="Imz78E6qO1Tw3Q3wVGVy-74" value="手套未修正振动传递率" style="whiteSpace=wrap;html=1;rounded=0;" vertex="1" parent="1">
          <mxGeometry x="2640" y="789.97" width="120" height="60" as="geometry" />
        </mxCell>
        <mxCell id="Imz78E6qO1Tw3Q3wVGVy-75" value="" style="edgeStyle=orthogonalEdgeStyle;rounded=0;orthogonalLoop=1;jettySize=auto;html=1;" edge="1" parent="1" source="Imz78E6qO1Tw3Q3wVGVy-76" target="Imz78E6qO1Tw3Q3wVGVy-89">
          <mxGeometry relative="1" as="geometry" />
        </mxCell>
        <mxCell id="Imz78E6qO1Tw3Q3wVGVy-76" value="&lt;div&gt;计算1/3倍频程传递率&lt;/div&gt;&lt;img src=&quot;data:image/png;base64,iVBORw0KGgoAAAANSUhEUgAAAHoAAAAxCAIAAACapCocAAAG6UlEQVR42u2aa0gUaxjHR7sI3UzhmHgNpA/txTDJSCopuhh+UGQvCilImkfFL5mGdXJ3LfpQapaEkZQfvOTOLEEqgmJEohEZmZcVvFCSkiWIWhDZRc+zM6s7szM7+25ndjy08/+w6uy8u8/85p3/+zzvo9fy8jImSSx5SbjFlIRbVEm4RZWEW1RJuEWVhFtUSbg5tLS05O3t/d/PYUvCzdCXL1+uXbsWGhqam5vLf6bBYFi/fn1RUdGGDRvQP/8Px202KBR6s91BNb6MqzlOXlxcTEpKKi4uPnz4MOMzNFo9YWaPe/jwYXt7e21trZeXF2I8fz5ug2wIV1uwE+qhIZ2c0HgRam7cFRUVHz58KCsrox+E8zUYPoTLTBqTCtfJmUNUKtXp06fhJiHG84fjXpENt6MzwIt37dplMpmioqJoh4G2Qe543KNHj+7evdvR0YEYh4Tbqo8fP4aEhICfrFu3jjZoxYkcGNDExIRSqfz8+TOin0i4rXr58mViYuL09DTjKHtyr9gT9dfXr183b948Ozvr7++PEoeE26re3t6EhISZmRn7YWYdt9OTgnnt6+s7Nze3fft2lDiEx+1qQvp7CayLYuMmNAoNQTmFXA9v/DUzExgYCGZCS+xYtFkfMz4+Hh0dvbCwgBiHkLhhaty+ffvt27eNjY3MiyUgS9VTF8cywZKSEvDNwsJCWKnEww20h3VkokL9xICDTCarqak5ePCg7Zaw1klCA3mK7QLq6uqMRmNra6tQuDkzV6vo6EZGRo4ePXr58uXMzEzI/2lnWVIpQo1b/M6g0GJGuycaAoBwoay4f//+iRMn3AGbjMAu4JVjcj0+pKOOVVdX9/X13bt3jzYMY84OBm2I/OTJk+fOnYuPjxcKt+U7h/XkLSbJy6jvZ04XSFdjY2MLCgry8/O5bpcM5/E/Uk+fPoXstbOzc9++fe4gzr4sxiwl9evXr5SUlNTU1OTkZIzTuKHiWUm+gVtlZeXk5GR5eblwZQ6tKiDBYRR5yx+0iZqTk9Pf39/T08P6YsKg0KwO4hdMcOpDxMFtnfBW67ZG9+3bt1u3bm3dujU3N45jmSRHUeeDPe7YsePs2bMuLTwueDdtnjM0Pz8fHBx8/fr1vLw8+nF7G5I7gd7d3X3o0KHXr18zCw030bZatuU3eErtnz3yWikDFFTouK0WzHaFBw8enDlz5v3796GhofaDEK2EFKQoAQEB6enpUEwLe5Fsre6DYHK13og7f/QEEjJux+AuXrwIU/v79+8cj5WjJ8KB9u7dC/fs8ePHnO/SDIBTzh6f/4GQcTsGl5aW9uTJE1gt2YOcVxdMnTp16tOnT+Ana43FXULF7dBKMAyKsdHR0bGxMdY7rlgJKZVK9erVq4mJCcEuDzlnEEROYSLi5gOXlZVFEAQsmKx3+KyEc6stLi7ux48fz58/5wzCY8yEkQPa68qVK1AZQgrl4+PDHuXK5MZ27969Z8+epqamtcbiLiHhplI6R02Q5ubmxMTEFy9e7N+/nzWK8x7R0lfa0YWFBchM9Hp9cXHxWmNxlxBw055hTuI/f/6MiIjQarWQn9iP47ESVk+loaEhIyMDEsrAwMC1xuIuCbNFdePGDahozWYzbR+Sz0qYm8YWQQF95MiRsLCw+vr6tSUCVtbV1XXnzh3+ZRZOGxgYOH/+POJONyVhcMMET05O3rhxI6yZ1iid0Lbfqrp69SqO48+ePfPz8xOQnUutYYxsV05PT8NjSmPtsDUMCWtBQUFLS8uWLVtExY2RfQ3wE5ikZWVlMpmMJ3G0WsmQetgk0+nkkLDDSvvmzRtYA4KCggRkjbnYGoanMyUlpa+vj76jyd8aLi8vh/jhVWzclHp7ezs6Kvr/aSLkatyIq7nTMsZSWVNTExISEh8f784cGaneysvLCw4OhiKZGSpfaxiKMrlcDuvNpk2bUOKQmmc2RUZGgpkcO3aMNshJaxgEaQL4OOK+sWfi5l5YfH19ocKC2Wo75Kw1DDpw4AA4ONTDKHF4Jm6u3AjDtm3b1tPTo1QqGcN4W8OgmJgYyE80Gg1KHB6NW4cZoKJY3dZWKBQ3b948fvw4fRR/axgUHh4OOZVdiedIHoxba9YZGf3TrKysnTt3Xrp0aWWU89YwpCWQhk1NTSHmgh6Bm6M1bDMTW2MHktG0tDR4tf4jlbPWMEbm6e/evauqqkKMxCNwc2i10mKWXKWlpYuLi1BzQVbK3xoGDQ4OZmdnt7W1If5PD+bJuDUG8zABxSJjqwxoQB0A1XlV1d+lSiVPa9hkMsG6euHCBZd2eDwVN6+Wl3Gtt5a/NQzcfqMuk3CLKgm3qJJwiyoJt6iScIsqCbeoknCLqn8B9L+321/krvMAAAAASUVORK5CYII=&quot; width=&quot;122&quot; height=&quot;49&quot;&gt;" style="whiteSpace=wrap;html=1;rounded=0;" vertex="1" parent="1">
          <mxGeometry x="2510" y="980" width="160" height="80" as="geometry" />
        </mxCell>
        <mxCell id="Imz78E6qO1Tw3Q3wVGVy-77" style="edgeStyle=orthogonalEdgeStyle;rounded=0;orthogonalLoop=1;jettySize=auto;html=1;" edge="1" parent="1" source="Imz78E6qO1Tw3Q3wVGVy-81" target="Imz78E6qO1Tw3Q3wVGVy-83">
          <mxGeometry relative="1" as="geometry" />
        </mxCell>
        <mxCell id="Imz78E6qO1Tw3Q3wVGVy-78" value="*=b" style="edgeLabel;html=1;align=center;verticalAlign=middle;resizable=0;points=[];" vertex="1" connectable="0" parent="Imz78E6qO1Tw3Q3wVGVy-77">
          <mxGeometry x="0.2003" y="-1" relative="1" as="geometry">
            <mxPoint x="2" y="-14" as="offset" />
          </mxGeometry>
        </mxCell>
        <mxCell id="Imz78E6qO1Tw3Q3wVGVy-79" style="edgeStyle=orthogonalEdgeStyle;rounded=0;orthogonalLoop=1;jettySize=auto;html=1;" edge="1" parent="1" source="Imz78E6qO1Tw3Q3wVGVy-81" target="Imz78E6qO1Tw3Q3wVGVy-85">
          <mxGeometry relative="1" as="geometry" />
        </mxCell>
        <mxCell id="Imz78E6qO1Tw3Q3wVGVy-80" value="*.g" style="edgeLabel;html=1;align=center;verticalAlign=middle;resizable=0;points=[];" vertex="1" connectable="0" parent="Imz78E6qO1Tw3Q3wVGVy-79">
          <mxGeometry x="-0.2025" y="-1" relative="1" as="geometry">
            <mxPoint x="3.18" y="-16" as="offset" />
          </mxGeometry>
        </mxCell>
        <mxCell id="Imz78E6qO1Tw3Q3wVGVy-81" value="&lt;div&gt;计算频率计权传递率&lt;/div&gt;&lt;img src=&quot;data:image/png;base64,iVBORw0KGgoAAAANSUhEUgAAARMAAABWCAIAAABjKeWEAAAcYUlEQVR42u2de1hVVfrHT/E4akrZqGSNXZzHNK9ZWViYaWRPlqI2NUreb6UpXQSthjBS0Sy1DLUaTVNM8QZKaIqiKaZlk44XxFBxchQR1DQvNGjO7/Oc99d61uyzz+FwzpEDnf39g+ewr2uv/X7f9/uuvS7X/Pe//7VZsGChjLjGYo4FCx7AYo4FC57AYo4FC57AYo4FC54g0Jkzb968hg0b+rsUFvyDsLAwj88NaOYcOnQoKiqqTp06/i6IBT8gODh4xowZHp8e0MxZuXJlzZo1w8PD/V0QC5UPAc2ccePGvfDCCyEhIf4uiIXKh8BlTn5+/qRJk6ZNm+bvgliolAhc5iDVfvnllx49enh5ne+///6+++5bv359Xl5eZmYmudPzdsTExHz11VccMHny5Pbt2/v7cS34GIHLHKRa//79b731Vm8uAm3Qe//4xz/4nZSURAST3zZ7TEtISOjbt29oaKi/n9WC7xGgzPn555/j4uJ8K9UmTpwIWxITE+XfM2fOREREbN682d/PauGqIECZs2HDhqKiIi+lWlZW1uHDh5s1a4Za49+XXnqpefPm6DTZm5ub+84778yZM8ffz2rhqiBAmTNhwoQ+ffqIVPv73/+O6HL/3E8++YS/58+fX7RoUY0aNfghbGndujU8admypRz27rvvPvDAA15mOKpsctOKgNdffx2PUNaz0LQ9e/bs0KFD+RRywIABxP977rlHFfW9995DaGDtj9rh/S0CkTlXrlx59dVXlVQrKCgYOnTohQsXsHvTtOfcuXOY79atW1NSUvj3gw8+aNu27Y4dOxo0aMCJqD5Czfr168eOHatrs+eee27hwoVeFhXm/PnPf37sscf8XWf/j08//bRq1aq9e/d23HX27NmlS5euXLmyS5cuKvAq5OXlDR48mKpTngWsWLFCfhQWFgYHB0dGRn5vhzqAVzNmzBibna78DQkJ4Ug3ebveDjk4PT2dd3THHXckJyeTiE6ePNn7qghE5mzfvp0XiQtUW9asWfPmm28+9NBDH374oYsTc3JyZs6cefPNN//tb3+z2d/NfDtsvwUHFRlweLwtRwMqKyoUczIyMhYsWCDP64i0tDQ0cOfOnbFyft9yyy2Oz7Jlyxb9dGmQZDsVdZ8d1OFPP/2ED7p48SKVed111zVp0oQjv/zyy7lz51IPoaGhd999tzul1ZkzcuRI/k6dOtVmlwZcWQS2NwhE5mD9TzzxBBapb6SKly1bRqCQWnYG3vRf//rX1atX4/94wXfdddeZM2d48YSgtWvXvvHGG3IYsmTjxo3eF7VCMQcJ1LFjR6rIdC9hnCBcrVo1PAthx/EAojpXIPI8/vjjaqM0Tvbq1YvT1Ua2sF21UoKjR48OGTIE/rhfWp05+u1wkcuXL4eTXtZGIDJn4MCBjok7BEB6HTx4kHjy9NNPuzgdaxYHOWnSJPQJB0sI4nQENGJ67969sIsI5n1RKw5zjh071rVr1yVLlhg8jgDL7tatG8oqIiLCxUXmzZu3c+dONJvaIszp3r17bGysbPnnP/8Ju/jx1Vdf1axZUzaOGjWKuyOS3S+wKXOIh5Tfey1gC0Dm7Nu3Lysri7fluItXFRMTg+Ammjdq1KjUS508ebKoqEjkhIDEBqfrmnhlgilzSkpK9uzZ473eKBNWrVqF3cMc071CgFJVEKaMHkbLqS3Z2dn9+vUjCk2YMEG2ELeLi4vRdaRMf/rTn9iybt26pKQkZyrRxb0MzIF+d955p09oYwtA5vACSBbvvfde0728Vw5o3769T5JI7+HInOnTp3/22WcYKLpR3Gf5UGj06NGXLl16//33DdvhzCuvvIJOozzNmjVji4si5ebmIvZgwo033ihbJJSFhYVJg01mZuapU6cOHz5MMIeocsFBgwaxV8UfN2FgTlxc3JNPPvnggw+iFG6//XY9y/UMv1vm8ErEYxnw0ksvuWgGuHz58rBhw1AUHNa3b19/P4SROfhjEuiPP/5YdgF3kl1yMGeewvSOpl4ZUyO6vvXWW6ZnUaXffvvt559/7vriREtELLl+ixYtZMv58+fxUy1btkQ/X7ly5eWXX05MTMQ14CBgC4xC2vHIb7/9troIXN29ezcpk+t76cyBhFu3blW7fNLE//tkDlVGvuGomo4cOZKcnIz7dHEucg4nevr0aazBJ7mKN9CZgxScake7du34V7IslUaj4HlqRyJxBZs9Drh5RzzOxo0bHdudw8PDO3furOfxOqjSqlWrjhs3Tm1JSUlZu3ato40SYUhj9CaENm3a1KtXb8WKFUjBOnXqkCuuXr2alCk+Pp47tm7dWm8qkMa3jIyMd999V78syvmJJ57QH19njlSCgpXnmAMXi+lj9I4N/7xO3o1Yngts2LABU8AOOnXq5N9n0ZnzzDPPFBQUYA2kUvzbsWNHdummiRAiW7jjjjv0K4wfP56sXf+KUiqoJWRS48aN9Y0PP/xwZGTkiy++aHoKfODuep+M/Px8x4ZpQFZDJNFtF4u/ePHi5s2bEVTCPcmaYOnx48cvXLhgCHQfffRRUFCQo/UjBfXs1LSFwIf4vTGnsLDwtddeI+AQNBzbhVE7vAaxPBfAXnFsXMedOzqTN44gaKgmXUIEt5DfuElnV1DMkcar0NBQGcYo/0qnbDmyqKiILV9//bV++v79+/HNHvQAoqImTpyob0G7Nm3aVL5IGsCtcTF6iIY2v/zyi2krHCEF4ac/L3yTDubQm/hj+405EP7s2bNTpkwxXOHZZ58l3mZnZ5O0qPG8xCWik36YxZyygcoKCQlZacfMmTMfeOABtQsuoaGdKXWFNWvWIAbkq1mp4B1zR3c4hjEh1vUQgXVS+a5frWKOfEdSVCEsEF642uLFix9//HEOSEtLW7RoEeof30EGTIiwOUg1/sX627Zti5GNGjVKhQhpFtPvS9WxEdeutlD4//znP6oFTAcZP8+SmpoqPTBycnL69OnDD8cmbMpGmq4T3vbb1xu9VUaYg4Qjo6tfv75+BV4iz8vpPAJ/Rcjxu3r16jCK7FS3BIs5ZcYXX3zBm0YYREVFqY3wgRwUbeDiRJw0/gw/98c//vFqFxKfGmmHi2N0tYZZ4BTefPNNDEu6LGA3WNh77713/fXXo3P27NnDU7MRmomDYC+WipSy2RsV77777kGDBonh9urVi4SeGDJy5EhkEuTnmsrOMNkOHTrogo3AxZVhlGMhKQAEVtkIN6UwXH/VqlV/+MMf9CO3b9+O3jMkY8IcfaO4CQrm+NWV3AmvITznuSAb+uJf//rXqVOnbP+bwFjM8QToYxwq7krvOcbrHD58uAtKIDCwTnIkHLOLi2NhzZs3R5nwA83AOy51CpWsrKwFCxYQEESN2OyNePw27aViuJdizr///W8ugpXY7K1DmOCvv/46ZMgQUSlkQRAAbsAQ0mXpCYFR9u/fH1Ujl+JILEm+yVBs2EIY4ZFhL5eixghW6r5169bt3r27KgmBZezYsTyIYyG5BdTVWyzlawyMMhyJ0c+aNWvZsmU1atRQG2NjY7mvQa8aGgYU0JCcS5mPHDkyePBgvKHN3jsBpfrBBx9IK7bAYo6HoHK3bt2qvqaVlJRgWMQTF6fgp1u0aIEJlnplrOTEiRP4Pwzu2muvJbi56HCNlUdHR/fu3RujUT5b4kapzaNu9iHYt28ft5DOKbAFJtx2222cOHr0aGKs6hqMKd90001kLJCQ46EQ19+xYwc22qRJEwSeMl8MlICjN07CRjQYVq5/yJfxsI6py9ChQzmXmjGUHO6hwbxp2uLtoAy5KSQkgqHQ2Aj/oc20adPQGuriFnM8BK4X+1ZdaWBRQUGBi6/7KDS0srO2IwE5Pdzj3ROXMDhiGhfE/lzHDZvdwtAVKCVlSbzp8+fPI73kX/ms6Xiim8whtB44cEAUGgcjwxBXWBh/a9asSXiRw8htMHHMDnFFgBXCS1sz5dHNbuDAgcRnxwZu+CNdjWzaByVc0vLly6k9dSShCR6SkEhMEGzbtg0mc+tSq8sZ5HMQfKhVqxYOgiflLVNsaaThL0RS31gt5ngIMhbcPGJdNAPEwICcjZ2m0nHD+ucIHbywo0ePYv1YJD84WD4sojp27tyZkJBgs3PDWUmwv4MHD+LjCYBqI6bZqVMncZk2e3dJx8/zNreZM2LECBy/+AV0TnBwcGJiIpKSKETyI9+viouLyXm4L+EFlYj71+9iiAPt2rWTFnzDjeADVBE1O3XqVBjLibgSQ3c1SHL48GFDlkLOqbqZe4Y8O6Q25MtBUlISjyNjEwwVZTHHc6CDkTHy8ZjXpsY5GyDd1dy/rJ4Ki29mi2vmYJr4+MLCQowb1sFSUgjVCWXevHmYlN6DWIETkfXoeNcKxxCycnJypDfd7t274+PjZVgRj4meSU1NhUvqE76zq/FcMv2II/QMZM2aNQ3tKLXS4OqhQ4ecfUj1OXCX0mZgMccTECJw5NOnT69WrdrevXtNx2PZXIYLUygNAxvvv//+oKCgXr16uT5FPv8PGzYMwYaIOn36NMIP2kAh6IR6IQUiA3E8UX2f8XgeV+IMsVTYa3Pv8znBGeft7EjK7MG0J+5/9fIJiDby4+p1M/89M+eHH37AptEMMCc8PNzwUTxwQFQkhhAhCUTkNq6NCYEHN8rTyispzJlD1pWenu7itJCQEGdZQcUBAqlLly617MCp+7s4foOz5gdTSHOZv4tcCWDOHBTF8ePHkRYydA53Vb16dRmQlJ+fjxX26NGjVIlSESDdIg0frS1Y8B4mzCkpKYmIiFiwYIE0rZAh9O/fH+et+q2gWVu1aqV3bKmwkH4cqjXMggVfwYQ5WVlZOTk5emcnIIMl1JZnnnmmHPqneA+ESkxMjDQuWbDgQ5gwB2J07969bt268u+wYcP279+fkZFRpUoV2eLZjFv+grPu7hYseINS2tZOnjzZuXPntm3bVpDRxRYsVBCUwhzpQO7+0GISJDjmOP2FO2FK+lDpW6699trqGqpVq+Y425MFC35BKcyBBsnJyXqS4wLk4s4Gaf3444/p6enDhw+/So9h2vvdgoVS4bqnoguUwpzevXuT5JTaGd5m7w2ZkJDgQtTNnz8/ODhY77juQ7g5EM2CBQNcT0zpAq6YAxk6duxYt25dd+ZWXLp06YEDB1z35xswYMDcuXOd7U1NTT1+/PhlOy5puHLlijqG619//fXlUKEWLLiGK+ZId1TpbeW4V/p1q39fsEP/bCJDBdFvahRKaGjoxo0bnU1Mun79+hp2uJgnwJ0JBC1YKAeYM2fbtm14+uzsbOmoV6dOHTy9PusXFrxnz54nn3xy1apVUVFRZO2RkZFINTXF2axZs7gy58bbIRv79esXHR1dpnlYLFiomDBhTl5e3rJly2rVqlW1alX1Dcdmn5RI/YYMxcXFEEytexEWFkY8UePOoRwJ0l133cVZanZGspF69eo5m9K7AqJMPb4sBBQ86Ss9adKkffv2NW3atEWLFt999530ygkPD09JSbnhhhvkmKKiIvIWBBhqTU0NM2bMmDZt2hCp/P3U7qJLly6FhYX+LoUFD9GtWze1uoTP4Qlz4APKTVYEUF1re/bsOX78eBnktHLlSo5JTExk77fffqsa/lB0sbGxzZs391tdlgXETB7ENMezUFngOKzVV/B8fM6GDRv0VeOmTJmCNnvqqadk14wZM4KCgurXr//qq6+qgVCtW7dmV2VpHMMvhIaG6tOpWLCg4LORbUuWLNm1a5cMyjcFUej11183nQqoYmLIkCGBPKrHgmv4ckxop06dkpKSnMVHmeyrIiyi5A7y8vJWr149YsQIfxfEQgWFj0dTO86zKli8eHHt2rUrC21s9sVfb7nlFu/HIEkeSLzNyMhAu8qnqueff57wW716dXTs5cuXrVF3lRG/53kIvMHo0aMN60x4ABlXJwKV3yNHjty0aZPa66ulXi34BRZzTJCfnz979mxZT9xXWLhw4bZt2/SZq5xNAGuhUsBijgmWLFkSHBzs5eI5ZEryOUuiSkxMTNOmTQcOHCh7jx49CjM9WJ/DQgWBxRwTvP322y+++KKMitUnjL506dK5c+fO28G/DRo0OHPmDAFKP1fCyMmTJwkvDz/8MPyRNKZDhw5Tp06955575DDyHLZ72UGBsiUnJ992222fffaZDx+fHE/WUSvTWdHR0c8991y5ic++ffsePnz4rbfekuR59+7ds2bNqlKlyk033dSnT59yGAVsMccIWZVSrTxeVFQ0fPhwCKAvOKOjpKSkoKDg4MGDCQkJZ8+e5V126dIFst14443jx4/v3r07/+bm5o4YMUKfZNknUu1qrPlOpIUDzq6JUebk5Oi9eBV27do1aNAgxxU+IDYB/MSJE3gT9hLPMzMzb7/99qCgIGpVBnTxQ02WT/2/88477vgUvM9jdtjsU2ZTtpYtW8bFxV2+fNmwbNbVgMUcI9LS0iCDvqLB5s2bSe6bNGmSlJTk+lwMBcLI6Fdhy9KlS2+44QaSnE2bNunWNn/+fO9X8PU5cyjV3r17nTWNrFq1Cv158eLF48eP6yuzK3z44Ye4A335dZnxWVbmoWaEVNJwgpWLglVHshECNGzY0M3ApTNHFqICbq4v7z0s5hgRGxsbFRVl0Coff/zx7NmzUSOlDoQiyHBk7dq1MRfqFtrceeedxcXFvEtFPPxuWFiY6dLZZYLPmYPbfu2115x1j8IRNGrUqFWrVkQP01Uh0K6EHQxXnyNbZgZ+//33ZRk5AYZ+3XXXqe7CID09/YsvvijTqtE6cxQWL16Mdl2+fLmzwSy+gsWc/wEmHh8fb7rMjizIo5YVcYYjR46gT2z2+NOtW7djx44NHjzYZl+8AC9LnvPNN9889NBDuhl5DN8yJyUlZdGiRQRJ072yjtqYMWMMyxYYMGfOHFIOpXVtv014j3BVq+XJ0tM2bW578Morr6CK8TLuF9iRObLID/cqh3TLYs7/YN26dTKnruOuAwcOvPzyyxI93BxgZ5hpVtoSfJi8mjKHpAu6emA6BFsElemyDjz7/v37Sf9kLTcXM7Kj4gi5upbLzs7u168fVq4EMMZNKMaDKObMnTuXMqvVhNyEI3PeeOONIUOGlM/AkABlzs8//2za8ZT8HuenVi8yQAbJ6mvB+hcG5hQWFuJuSULIoFA+aCcXSxI44tFHH0VrOU56jP5Zs2ZNlSpV9u3bJ/1fXWiqr7/+Gv+iFjgBUKJr164ovf79+9vsxt2mTRsOUMyhnOPGjZswYULVqlXL9PgG5lAqWem+fD6UBSJzzp8/z2szFTlxcXGuZ5qXpeDgj1oIzY/QmVNSUoIg5K8sAyqLV6Od1AhcWdVQfhOR6tSpo1YFFWBw0jBoei9IRTT+/PPPXRcpNzeXbJAYopboobbxNZAZuUvEJrBMmTKFdJEkJzMzk+BDfQYHBw8YMECORxaiii9evFgq53XmyMeDy5cvcwvOXbFixdWu/EBkDjVOwHGcbGTLli34v86dO7s+XdZSNqS8foHOHNLi6dOnK5OdNm1aUlKS7nop86ZNm3744QexyF27dp07d474oA6AOaTy7dq1M71XeHg46ZnuVrD+CxcuGOKPBDoDA7myzEtOwEGzwVtYDbeJZpcuXerdu7deTvIiConmVPOYC8hhyJT0Iw3M0Q8uh66AAceciRMnHrVDX3tQ7SKbV9MCO4M0Uj/99NPeLNznE+jMQWWdOnUKWSW7cPAoUsMXUvQS1i9W5dh6iyNAhYaGhjreiOrq1q0b4YK/aiNXIN8jXOhHylKeSpsJYA4bx4wZQ4Gl0mSy8pkzZ1JgSKU+EAsoIbmQo2OS5brUv6Zta+WGwGIOb4uqJ6CjEGSJSX1vdHQ0QsKdi+Br3Vm4j8PgmJstreTfhDuxY2xi7969FDU/P79Hjx7OPKjOnLZt22Kd6lMMxop406fh41IRERFoOUmgyeMJQfoXKgQV7t900UXkE1RctGiRavty1tohHBs7dqw+Zp7CoAwbN25MiJOl6URMEoK+++47w+SvEJ6Ma+3atT/++OOtt94qjozwiAB76qmn9HUALOaUN2Tx3aioqH79+qmNeNBDhw6Vmr2QAZN8uzkhPaI/NTVVTcPgGoYBGrDiwIEDsjywM+jMwV4xVj2efPTRRwcPHsTmZCPFhpzc4pprrtm5cyeiiH/1Zqj4+PimTZua1gDpDfFBLb0oEQMjTk5ONixpYfohEkoTi/RVjLKysnA9YWFhZIyG71oyApIj69evD88lbCoxpjsRizl+AFoL54dtqS1Eoa5duxqSZkeQ/iLqSj3Me0DsBx980PU8QTpzSGzIBMhDJFcGpATQgOQnJCTEZteiv/76q3RjVWMfdMyZM8fZYCFiyLFjxxSxhRtEEqJWjRo19CO//PLL8ePHQ0t91iRym9q1a+t+QQhGQHZ8QMI+YQdWE9aGDh2alpa2Y8eO06dP8yCIQJ0nFnP8AFnLTZ8UAWFT6uTUjzzySGxsrKmeUfjmm292796N/eE7uQUSqNQpuXNyclBNV65cUaGMvBmDSExMdD03naFVmjsuW7bs3nvvlUkk5WuSYgLiDQsWETV16tSaNWsaSLJu3br58+eb9jCCgVBONX/Jrc+cOSPrxetYsGDB9u3bcUP6RkhCGqa3PUiXHFMdizpF1BGmCJJwRtoJtmzZwvF6vx6bxRy/IDMzExGlRndnZ2fjg3Xx5gisp2fPnq47EABEyLBhw6pVqwZtJHvGQBcvXoyxVv0NKJx69eoRCnDYHPyXv/wFQn5ih1xE8opSP0qUqQ8BhotZS/8GPH379u0NzJEP8LiPBg0aqC2kalD62WefxeW3adNGHUxIjIyMJBkzXGT48OHcyLRrrDsoKCignqVXDmGnWbNmvCPqwVJrFQU//fTTk3bExcXZ7DOSEhlU70NHkMtiT67bOrGzyZMnozQwPnwqNo2vxcJKbbzm4NWrV2PTirpIL5Iu5bnnzp1LuHP8NO4mc0TtYGcq/YiIiCC5J90vKirSczYuiKKDzPKvzG9smsfL10YCFGRTG3EWZD6ffvpprVq1PHsveiwSTUgZRo0aJb8TEhJwMepgizn+AU6dFFwmm5e545wdybs8evQoWt90L14ZebZnz57U1FQMUWl3GQG6cOFCm11H5eXlmZ4OG4uLi0mxMjIy1JSi0salOlNjynpKphfMHeZwmMrX5QcJOlEX8jj6AniOjYoTEU+fm5uLlDXwNiUlJSgoiGKrLSdOnBg8eDCZicwc5hmoARIq8TVr166lbiXI85u6pU4kZxNYzPEP5s2bh2UjnVFWvBjlaA2QViD3L6skFmZXv379c+fOtWrVqnHjxi5O4RawDrMgRcEypG+lWrNo9uzZRAzHjEJugd7DvHz74U+fFg+GlCpQBWT2qNNym42ETBXhYDHHD5A1tyUnadSo0f333+/sSDUm1B0o756enh4fH2/afGRAfn7+oEGDoA1qRBauY8vNN99s+63PaExMjGknYtVM7M66YO7Ds9m0Dd1brzYI4/LDYo4fAHOQHDBnxowZ/i6LhUqGgGbOxIkTly9fHhkZGR0d7e+yWKhkCGjmyGd1BPojjzzi77JYqGQIaObY7Co5LS3tao+8tfD7Q6AzRxal83cpLFQ+BDpzLFjwDBZzLFjwBBZzLFjwBBZzLFjwBBZzLFjwBBZzLFjwBP8HaHZJVEtO1PoAAAAASUVORK5CYII=&quot; width=&quot;275&quot; height=&quot;86&quot;&gt;" style="whiteSpace=wrap;html=1;rounded=0;" vertex="1" parent="1">
          <mxGeometry x="2810" y="560" width="300" height="120" as="geometry" />
        </mxCell>
        <mxCell id="Imz78E6qO1Tw3Q3wVGVy-82" value="" style="edgeStyle=orthogonalEdgeStyle;rounded=0;orthogonalLoop=1;jettySize=auto;html=1;" edge="1" parent="1" source="Imz78E6qO1Tw3Q3wVGVy-83" target="Imz78E6qO1Tw3Q3wVGVy-87">
          <mxGeometry relative="1" as="geometry" />
        </mxCell>
        <mxCell id="Imz78E6qO1Tw3Q3wVGVy-83" value="裸适配器频率计权振动传递率" style="whiteSpace=wrap;html=1;rounded=0;" vertex="1" parent="1">
          <mxGeometry x="2832.5" y="789.97" width="120" height="60" as="geometry" />
        </mxCell>
        <mxCell id="Imz78E6qO1Tw3Q3wVGVy-84" style="edgeStyle=orthogonalEdgeStyle;rounded=0;orthogonalLoop=1;jettySize=auto;html=1;" edge="1" parent="1" source="Imz78E6qO1Tw3Q3wVGVy-85" target="Imz78E6qO1Tw3Q3wVGVy-87">
          <mxGeometry relative="1" as="geometry" />
        </mxCell>
        <mxCell id="Imz78E6qO1Tw3Q3wVGVy-85" value="手套未修正频率计权振动传递率" style="whiteSpace=wrap;html=1;rounded=0;" vertex="1" parent="1">
          <mxGeometry x="3020" y="789.97" width="120" height="60" as="geometry" />
        </mxCell>
        <mxCell id="Imz78E6qO1Tw3Q3wVGVy-86" value="" style="edgeStyle=orthogonalEdgeStyle;rounded=0;orthogonalLoop=1;jettySize=auto;html=1;" edge="1" parent="1" source="Imz78E6qO1Tw3Q3wVGVy-87" target="Imz78E6qO1Tw3Q3wVGVy-94">
          <mxGeometry relative="1" as="geometry" />
        </mxCell>
        <mxCell id="Imz78E6qO1Tw3Q3wVGVy-87" value="&lt;div&gt;频率计权振动传递率&lt;/div&gt;&lt;img src=&quot;data:image/png;base64,iVBORw0KGgoAAAANSUhEUgAAAHMAAAA3CAIAAACw6OLLAAADDUlEQVR42u2a24GrIBCGtZ1gO5BykHIi7YjtZAFJuAQTTRizwfmfzoq7Bz+HuTnt9XptUABqkSyQkCyUkCyUkCyUkCyUKiSrRNf16vE6Ha4D3W8blZKVdBw5kaxlU2/+Za4pjmQ/k6YoTqOB6MkGF/dShWS9ArL7C8lCCcnOUlII2fDBuGR27qWNgIQOI5+YaCjndOvbQbLzjWwyVOfwp7h2yERJdtaB0LhmDVucho1O+nBkJeuYvOVkpJ9TiM4htGTPzeXhXbwRAA9GVl8RzaARaTPsFL26DEJSn5AZ9NOp57EDSG5aoVdkzebkk3XyrQDxUr5gCPYYkZXEpbqplSrtdc/6sYNnW7Dlj8lSsxniNutqGWXP1f8l+/SBTHTqL9azLlpjvLDZaNeQvR+oiGxY7Hwb12plYlFsjdpcJj76WHZjCWKzgtzgJWTf+O++rfmguR9Ir5MqGlujFB1zTQdiT6rnUNjPxvtKyP6efHoVwApzg+UnB80N9iO71K+KtdnJhycwPHAh8OxuoPPZ37dZk/6zW4HlQphb0DXYiQ8PpZb+DTGB12C/T3ZHlSVr3rxQ9DJk3rA5fYpnl6pUQbIJuqiz4Q7efMuKSPCJn23bFpraGmjFyMYZmL3z5OsLn/ZGaVzNKkU2AWYKjOZ+n0+/mzQDr1dvkM2dwdQSQ5tNdRCrXU029nyJ3cYmGt6vC5mLzlhI8pd+rCh+R2W6iAtmaFMFHcWiOvEoRgtK9r4Yd0mByVY1b5B6g7jMTlahvUFd8waJGYbwbHsptNmMUy6qyuYNUrS6PhdSzXUC6fnF1907mk8dX8XX9mr3DF85D8/kTv624BfGFY2B1dVtGWVs9kkHu/DIQdlvt/+sI7OFbPGRg4N9FZ/JjkTYKib8plt85OCAZEVjO29h/gIxclAv2ey8QYjHJykgIwf1ks0rSxZk5OCAZJkdkgnLMpCRg+ORZRNppMmpgj4RxMjB0cguCGDkAMk6FR85QLJ3FR45QLJQQrJQQrJQQrJQQrJQQrJQQrJQQrJQQrJQ+gPYXxTPMS3WwwAAAABJRU5ErkJggg==&quot; width=&quot;115&quot; height=&quot;55&quot;&gt;" style="whiteSpace=wrap;html=1;rounded=0;" vertex="1" parent="1">
          <mxGeometry x="2910" y="980" width="150" height="90.03" as="geometry" />
        </mxCell>
        <mxCell id="Imz78E6qO1Tw3Q3wVGVy-88" value="" style="edgeStyle=orthogonalEdgeStyle;rounded=0;orthogonalLoop=1;jettySize=auto;html=1;" edge="1" parent="1" source="Imz78E6qO1Tw3Q3wVGVy-89" target="Imz78E6qO1Tw3Q3wVGVy-91">
          <mxGeometry relative="1" as="geometry" />
        </mxCell>
        <mxCell id="Imz78E6qO1Tw3Q3wVGVy-89" value="&lt;div&gt;计算平均值&lt;/div&gt;&lt;img src=&quot;data:image/png;base64,iVBORw0KGgoAAAANSUhEUgAAALkAAAAuCAIAAAD7rC/wAAAIRUlEQVR42u1aaWxMURR+FSUaJYjaCZLq1Fp0LCGK0D+CoZpYMo20drGTTBFKdfxorYk1UZ1aEtSQFLGnpKUNDbHMxFI7saSWqi1Rzsyb5e3vvDdv+ujc7wfTeXPvPe+73z3LvTfsz58/FAEBAmFEKwRIEK0QYEG0QoAF0QoBFkQrBFiEklYcdnOK1ZBXZjHobcn/iVDRisNqTsmyOyiTrcpm0tuY/xQhoRUQijXGYqOskWZKA604rEZjloOiDOllHh9lN0ea7fB/3VZiSGjFA9eMaqEVyicOvzZAPylUHQ9vRCtqu7Ib0p1ZWTGe/ohW6hY01oqpymQH70L7lhDVSmRkpGyzqqoq/pc1NTWfP39u1qyZdNuvX7+Gh4c3bNiwtt9Vc63YTK4una60hdJbKz9//nz37l2HDh2kfwYT9/3796ioKBVDaONXfv/+vX///pycnLS0tCVLlni+ddeodofD9ZmR9RUWFi5cuDA1NXXRokURERG1R6e4VsaPH3/x4kXZDvwrxKsVulOXWmKsRqdFF638+vVrx44dmzdvBj4XL17s+VaE/PLy8qSkpISEhMzMzLZt2yoaSEgr3qxeDP78341v376ZzeaXL1+CuYMGDfLa6ioWYmxlNpPB9dFhYc7RgwcPli9f/v79+xMnTqjTuBr4nABvQsGefv36wYd79+517NiR+ej58+cLFiyglSSkFe+LQpWlWisKCWeiurp68uTJlZWVIJdevXphyP/06VNGRsbJkyftdnvv3r3xZoprxeQeylMgepQJYjWa7UzTofn06dOvXLlSXFzcpk0bdh9SJSR4wpEjRzZo0ODcuXPwrxqKlUyG0ep00IsMqDeYTHk2Dvl79+4FjwgmgXw5rS9dujRu3DhKRCu+GlpiRmXNwxPOhGryoeG0adPKyspKSkpatmyJNFNMK771xzKd/tNu8pt+/vz5CRMmHD9+fNSoUYwu3K0oGfIqKiri4+PXrVs3b948NRRrDToSbdq0acaMGczvIQlr3749JaoVz+QEphUs4UwUFRWNGTPm2LFjiYmJSsn/8uVLXFwcrAF4X6SZIlqxGrwjcUznJvzJycn379+/c+dOWFgY5+0x5E2aNOnhw4cQROvVq6eGZU3hi0Q3b96Mjo5mPpo7d25+fr5HK/y9OA5nSqGEcCbAN9y4cQP4Z7OHJX/FihU2m+3Ro0eNGzfGmCmb23JNZ+LFixc9evSAcL5+/XpmC7Mxixl+JbzhoUOHZs2aBbFzxIgRaljWGr5IlJeX17RpUz1MkCKcidevX8fGxs6ePXvjxo3M1njyr127Nnr0aL4fFUNAWtm3bx9UNAUFBTAk+wlW2qA2eGGQS3Z2trQFci+iPgJwQEeitWvXLl26VIPuFAOrlYMHD4JQDhw4QOdSDGDJh+q1efPmEL+OHDmCsSwgrQCbe/bsgfyoZ8+e6syFeq9FixZDhw49ffq0poyrhy8SQSo2cODAWh8fq5VVq1Zt3boVKgN/7emBguypS5cuERERd+/exVgWkFagVIa66/Hjx7y6V4G5nTp1at26dWlpqUZcawCJmij4wGqFTqFu3brVtWtX9hMF5MNiANf+6tUrjGUBaSUpKens2bNv377lbalxzZXI5rt37w6pGWTHQeBdfg9acAOaLnx0CkOihHO2ElNTUyF2OJ3Odu3a8X+IJH/48OHA/IcPHzCWBaQVKO6hYOPvXykyt1WrVuAJIc+StkDuRTTLVyi3Xzl16pRO6S1WK1BS5ObmFhcX+7fgGD9Ekg/JAxTPz549w1gWkFbS09O3b99++fLl/v37S5srhurqaghAOnl7YdD5ik7JCoWPQVD+bNiwAXgD9thPFMQgIL9z584SC5WJgLRCV7xQo5tMAmvAby69LylkPbjQ+Ph4KKYyMzODRb5CQB0EubZORRAlRrjHuTK+PnPmTHJy8rZt28C7s3vAkv/x40cICFOnTt21axfGMqRWhFUKg0VHR0+cOJE3mHfXmrkNLuQGIZOHfL6oqKhv3776TA0byOij5sQae9tXlHDOoD9+/OjWrZvRaDx69CjfOgz5dNUt5JmEIakVdqYg6FtgMCC3oqIiPDxcqJXnncXMTUhIAANAKwpIDxokog8n21WqFextX0nC+aeAsMx27tz55MmTJk2aqCAfShN4ZaikkJvmgd5JKC8vHzZsWHZ2NgQjGRJ45tJncrt3754yZUogNmgCUENKSopY9Ll9+/aQIUPwW5zsd9fmti9fK0+fPoVMcc6cOax9c8GGPPJLS0sTExMh6YHVjjRAg/srGRkZEDUvXLgQFxeHN/fNmzeDBw8eMGDA4cOH2WdJmgJ9jzonJ+fq1auC0QdkZLFY8vPz6bMIfuqAQsA3rfhaAUApBAUR7/hQhvzKykogPzY2FhriT+I00EpNTc2aNWsgwwWXCHlW/fr1pc2FEQsLC4H9Pn36QH7QqFGjAA2QAeIe9fXr19nn5MLwnVsx5l2iomfnHMHRCuU+aVm9enVaWtqyZcsE95M45BcUFMB8QUkB8UsR+Zrdty0pKYGlCS4RRMB95l3KNHlgK+TC8+fPHzt2bBA9CnN0uXvUyHtxPq2ITZuMGcHRCgBSli1btkRFRa1cuVJoXD/59DTNnDlTwg+JQeO72dCb7PRjfqMlgnCP+l/TSu0gBO7xB+EeNWPaai0G6S6VUNKKhveo1foVp9qDCFfR7TDwLn7WLkJKK1rco3ZDmVYQt33/C4SWVjS4R+3rRd94oAdCTSsB36N2ITSlUue1ovk96n8jddAFdV0rBNqBaIUAC6IVAiyIVgiwIFohwIJohQALohUCLP4CiSXU/9tkxpAAAAAASUVORK5CYII=&quot; width=&quot;185&quot; height=&quot;46&quot;&gt;" style="whiteSpace=wrap;html=1;rounded=0;" vertex="1" parent="1">
          <mxGeometry x="2490" y="1120" width="200" height="90" as="geometry" />
        </mxCell>
        <mxCell id="Imz78E6qO1Tw3Q3wVGVy-90" value="" style="edgeStyle=orthogonalEdgeStyle;rounded=0;orthogonalLoop=1;jettySize=auto;html=1;" edge="1" parent="1" source="Imz78E6qO1Tw3Q3wVGVy-91" target="Imz78E6qO1Tw3Q3wVGVy-92">
          <mxGeometry relative="1" as="geometry" />
        </mxCell>
        <mxCell id="Imz78E6qO1Tw3Q3wVGVy-91" value="&lt;div&gt;计算标准差&lt;/div&gt;&lt;img src=&quot;data:image/png;base64,iVBORw0KGgoAAAANSUhEUgAAASkAAAA4CAIAAAAuBplfAAANNUlEQVR42u2de1BM7x/HT3LNnRAht1x2t0HjnnuSMaEZbYuahNKgcQ8x1MZELklhyHWYRu0KTRp3UZN7cmkzIYmKpOQyiiG/T3u67O45Z/c5Zy/nW7/n9Yep3XPO8znP87yfz+fzXGL2798/AoPBmBwzrD0Mhhew9jAYfsDaw2D4AWsPg+EHrD0Mhh+w9jAYfsDaw2D4AWsPiZKSkoyMDL6twNQ/Jk6c2LhxY9qvsPaQiI2N9fDwaNGihZmZmbm5Od/mYOoN+fn5rVq1ov0Kaw+JvXv3pqamnjt3jm9DMA0HrD0kAgICysvL9+/fz7chmIYD1h4Snp6eAoFg48aNfBuCaThg7SHh6OgI8luwYAHfhmAaDlh7SIDTg5TP2dmZb0MwDQesPSTatWuXmppqZ2fHtyGYhgPWnm7Ky8stLCyKi4stLS11XKqQS6VShThTJubbaMx/Hqw93bx582bgwIG/fv0yMzNjvkohd5fKxUJCGkwE/TOw9hRSkShYQYhl1Q+Wu5u5ywlhcGZmkJDv2sFwBWtPN2lpaR4eHm/fvkW4tkolCoNrj059oqwgrLx6Ddaebs6ePbtnz567d+8iXGtE7UkJcVawXEz6Oqy9+g/Wnm4iIyNv374dHx+PcK0xtSfIDMoSiUj1Ye0p0ZoFEHl5eT179uTbRmbjedEeFPrixQuBQIB+S05OjrW1dfPmzU1vbWBg4I8fP6KiohCuNa72ZOKqTI+AwJPgX3sVFRVJSUmzZ89GvwViBysrq969e/NicGVl5cWLFx0dHVu2bIl4C6j3/fv3Y8eORboaUn6Ju1wBPwnFMt3zbTxo78qVK1KpdMSIERERERqmw+fBStvrEpsaIPCDb728vFavXm3i3cze3t79+/dH29TCTnuurq4JCQnaryEbqEZ75DwLIZMRUo7aI+dplOgxWXPkyJHw8PBFixatWbNGzflobcRHjx6tWLGiV69eBw8ebNu2LaeSOXLjxo21a9dOnDhx69atmpubmW3++PEjvCDIDwwWiUR1d5DpN6F6B1SsVKisUOW3ApmuXsBRe1UKl8oVZOlCoTgoTiZGasTExERfX99r165R1sqUfYIcLqQiCRFH7RVlZWUwyg4aNAhckPZgw7A4OzvPnTsXFIhSMay09+7dOxsbm82bN4eEhGh8BZ178eLFBFV7yiLkhJAQx3HWXlaN6FT7EAUxU+85evQodNYHDx507dqV+nDtjQjOB+SXmZl56dIlPaMYdOPB37q4uFy+fHn48OG0FaLdZrlcvnLlyrS0NBg1qBbQiAytF3DRnrJEIlgWF1Slt+rfUEbQp0+fOjg4gAebNm0a3TN1DxXFxcX29vbg+latWsXWbM7AMLFnz56pU6fqqhZ3SfXgWTUcieNkKNK4d+/e6NGjaeVHji8U7bGqcipU7VU/SaUJyOCJvjnu3LkzadKk5OTkMWPGUGoAqRF///49bty4IUOGHD58WJ92QTQe+syAAQN27NhBjmXcbIYuB9J9/vy5WszFdHOdC9QGB+1RClQwDBcUwHuUlpZCzEn5Ri4VuSP2JvD+QUFBEAaYLPeztLSErma8TS2kiztz5sycOXOon1c1kOYKA2Lj0qKpvdqmU29XuEwupuuRbm5u3759u3r1KvXJ6I0YHx8/b948cPtdunThXG+IxoPq9u3bl5+fT5eqoNpcVFTUrVu3c+fOzZo1S80CGu3J3asmxHSHPly1x37ULSwshPjq0KFDkCRQHqcSOehKQj58+GBtbX3ixIn58+eztJwLMEg3a9bs8+fPHTt2NF4pW7ZsgTwEQqNRo0YZ+YXUtKcKigeAHgxxF/grPRuxvLy8U6dOgYGBmzZtMshbMRn/9+/fPn36zJw5kzpVxtbmKVOmQCQC6ZLWUpEdkR4xp0IolqEmeUpOnjy5YMGC3NxczaCZQHb8NUDWO3DgQIhd2VrOARibbW1tKyoqjJphfvr0CVxcQkLCkydPBg8ebMwX0kt7MplMIpEoFAqaOWqWjTh+/HiIXGj9Z91skDpa1MFUeE5OTr9+/WJiYsDNsriNDhgfw8LCYNRo1KgRw+0shEdwnmsBt6qcTBWKgyEARFIg5DNwKXRicCN0tZ2F7kmdnJwg7Ll//z6DbQxNVw272T0oBXob2qYWvXj58iWkJRDSREdHd+7c2Wjl6KU9yHvXrl1bUlLSoUMH5AfTIxaLnz17lp2dTWuhobR38+ZNR0fHGzduTJ48mU1l0HDgwAF/f38I3+pmmNRLVc3JIfk/66Yj4ddjjaF2rhNpMYPw8fGBKP/Lly/0FVezYQMFT09PqE0IPjlazobz58/v2rXrzp07JiiL7CggvwsXLhitEL20t2LFCsi3IQ6nRgFsG3HZsmXHjx//+fOnQQIKJuPJaOv58+eqKwTcbJbL5e7u7mp5gWqpbENY/df3FHKpxB0C0KqCCLo539r5AW9vb+hSZWVlyPXGiIeHB8QqxcXF+liOCHQ1kERtfGuoyJOp2pcuXTp06FBfX1+jvRBb7anNlwcEBOzevRu016RJE6S7mYGMEWr169evBnkrpuIh2oSR+uHDh8OGDUO+iZ7Tp097eXk9fvwYGojrS6thgLX1WgME1T63bjRRnW8ipxPoYk5tjp92Qg9iztLS0vT0dFp7DBtzbt68GcYLtE0t+gIiv3XrFnWxwaDopT2oh+XLlxcUFHTr1g3xsQRDI86YMSMvLw/CToO8FZMKUlNTIbFMSkqaPn06elXQ2kwTb5tce5qzz3RrDjSe/OjRozCcQ+JkY2ODVG3M2NnZQQIN0SCXN2YJhMp9+/YNDAw0dkFPnz6FfNjIyR6hZ8yZkJDg6uoKOfCIESNY36yOvb29tbV1YmKiQd6KqXyQNzkxS7O4x9Lm1atXQx8GR10X+/Chvep9AMqFFeW0i9ouAnrtvX792tbWFuJvjbUB5iULZUEUL1VUVATJbkREBAzAXN6YJTBeSiQSY69nkPOckZGRDHt/2WyX0XF+l1F7tNVNZjG1zfv9+3cQDESeEA5o2semEcmFIujKCxcuNEgF0hejjO1B5H369KFuhWdrs0AggMD11KlTGo8wacypnGTJUtTsKKNMdTJmsNCPzc3NNYY6HY6fssB76NAhaHsIe9q0acPljVkCwX1YWJjOTS16As4EBMO8uoCoPZTzu/T1zbzLU7Nof3//lJQU8NKqqS/bRjxw4ACoNz8/38LCQv/a075F9cSJE5BFFxcXa2zjZGUz9HaRSHTv3r2RI0eqNwuv+R4FRu3dvn3b2dkZshqV7UjazFfbSKXk27dvMIyJxeLt27cb2mx6rKysrl+/XjdLxu0IuVZfBJkwjKkam1oACG/atWvHOD+utf4VLLWH/rTc3Nzhw4fv2LEDonHVa9Ab8ePHj0OGDFm/fr1pNgZWVFSAYBwcHA4ePKjxXog2//37F/pty5YtL1y4oL5xvP5oj1BmfSEhITB+VCfrOmpAbaXy9+/fHh4eYHBcXJxpjjL8+fOnadOmnz9/Vl3OYnmEXIcvio2NBR++Zs0a6p3knjLQXpfU5TWBH8NEkpr2jas9Qrnm6eLiAq1QPSiwaUTwPzB0goeHrMFkG+ILCwthuIdwacmSJdUr48g2Q6/bsGEDvPK1a9c0vXT90h6hXHIJDw+HDAo6XHXuSG+80vFnirPOCoKChMnJyXD9hAkTwOMZbyfnr1+/VKdhQRV9+/YtLy9X7SWcjpDT64HcSK3dJOWCUms2xyOMrj0gPT1969at4ApiYmLQGxH8xrZt2xYtWuTn51e3O8Qk5OXlhYaGZmdngw0QTSDaLJGYe3l5OTk5gW7hLrq6+S9pr3ZkFjPbBP7k7t3QqPFBcm0709RSXkgwunfvbrxNlRAIQbe4dOlSZmZmixYtyA8fPXoEgzREWapXcjpCTt+DUQZ+5eHr74bVHpvze9qeVlgYvdLaD70Ri4qKLC0tefzPZKCVO3dOmWMuQbS55/fv8Hvr1q1pKkXz/B5r8N+MqAKcKiQwAwYMiIqKCgsLW7duHfl5YmIifJ6WlqZ6MeMRcmo8WNe59TzPXnu7/jEn56KNWP//n2DtVQF+GAZj+FckEn369CknJ4dM8KKjoyHKl8vVejunI+SG0p7BL0Z5Gov9wRh0sPbUiI+Pd3Nzg+B+586d8KtUKi0pKYmMjFS9htMRchNpj9v5Xa3lShTIf5QAwwqsPTWgNsaMGZORkfHq1asePXr4+fn17t17w4YNqtdwOkJuSr+HqR9g7WlC7gBcuHDhsWPHZs6cCW7Qy8ur7mv2R8gN4Ytw4NcAwdqjASSXlJT07Nkzb2/v0NBQJycnXs3BgV/DBGuPhqysLDs7OxcXl/T09CtXrgiFuNNjDA/WHj0+Pj4Qc8IPpaWl7du359scTAMEa4+egoICW1vbyspKjU0tGIyhwNpjZOPGjbGxsW/evOHbEEzDBGuPka9fv6akpMyYMYNvQzANE6w9DIYfsPYwGH7A2sNg+AFrD4PhB6w9DIYfsPYwGH74HzI/AScj+2UfAAAAAElFTkSuQmCC&quot; width=&quot;297&quot; height=&quot;56&quot;&gt;" style="whiteSpace=wrap;html=1;rounded=0;" vertex="1" parent="1">
          <mxGeometry x="2425" y="1250" width="330" height="100" as="geometry" />
        </mxCell>
        <mxCell id="Imz78E6qO1Tw3Q3wVGVy-92" value="&lt;div&gt;计算变异系数&lt;/div&gt;&lt;img src=&quot;data:image/png;base64,iVBORw0KGgoAAAANSUhEUgAAAIwAAAA2CAIAAACa8+Z6AAAHj0lEQVR42u1bXUgUXRgeNSgrzKDSyoywWtlduhDsorzoRyhZjSB3NywosqCsILWyH2J26CIj+vPDboqvVCKc6RcrCdNC6Ae0H7XdSrrQDC9kk9yiKNz83t3V3Zk5Z86u42w5fOe5EJ05c94z7zPv+z7vmTFmaGiIoRjfiKEkjX9QknQASpIOQEnSAShJOgAlSQegJOkAlCQdgJKkA1CSdABKkg5ASdIBKEk6ACVJB6AkRQtfv37t6OhYtmwZedjDhw9XrlwZFxdHGENJihhOzmZ3CE7fryYr/4a3EsbevXu3pqaG47j09HTkeis/FLr4wYMH//ixYMECpdkoSRFCsMVwpjdvWJPP22bOSCDp5cuXe/fubWxsnDRpkvh6GwPUGq/brufzvmmC6OzsLCgoaGpqSkhIwE5ISYoMQIzZyQ4Rw2cEGzZsAKfDT9ExEcc4AKkGg2HPnj3Ys5SkCOFjyWH0ZTkTcdyXL1+Sk5P7+/snT54svtQZ+F2S6kJoaGg4fPhwa2srdk5KUuQYLiomB1/LKlL16tUri8XS29srORomkJj3799nZmYODAzExMSgZylJo4RT4Ow2wepzuK/MCKEzJofvYH19fWlpqcvlklyEJktpYevr60tKSgJBOHXqVNTmOCUJFl1RUVFYWEjQPDK0tbWBpioqKpo+fXp0FzcSFi4bSAHeGPC2kQsIAkhZ69atk0ZS+IIGkZSRkfHt2zfdRNKFCxdAkrIsa7fb5YuGB5njhoWwNL97vd4rV66cPHnS4XBA3dZ4TUAMhI+vIDkFm93GhFwu03put3vOnDkej0ck7ZBk52MtEI3DB6BbKikpaW9vxxpXT5LYXRDrJqu1lmdN6uYS4erVq8XFxaBiU1JScK6CVOPvUTiznalFk/y7d++gf4RJcnJyxk6NyDJQ4XAGblbaJaGCfM2aNbt374Z4Eq2akQkGwR+FwSNwy5DuDh06hDWukqSAYBkpof487WAchMoYGXp6etLS0m7cuJGXl6dg1MiH08HV1dXgI5gqMTFxTKuJ2BUykh4/fgzRDMExYcIEBp/sJBx9+vRp7dq1cNWMGTOwJlSRFKBIkm2cCk/26HD06FFwcXd3d2xsLHISHuaInoSfP3/OmjULwnzfvn1jJCBCZ6CtbVVV1aNHjyD3JiW5MRw5uWBH+/r1axDfMHLJkiVKJtSQ5OdIg7iRYXBwcPbs2Zs2bTp37hzOojP0tymM8c2bN7e0tEA11nJ9yr5w4tofiI+2tsqq3HIXuofkT9uBm4DMvH79+ilTphCMqCAJE0eaABJUamrqxYsXt2/frmQ2fLLz48SJE0eOHPn+/Xt8fLyma/w7UEGS6DHQdClPnjzJysqqq6vLzc1VMOuK0Orly5e3bdsGkbR48WKFGyBcHYV7Gxu0JSmYlgJxJvtTMkKMwGlBgHJqA6qw2/uIaiXhzp07kEOgKqxYseJve1gDaJ7uZHrT318MoYI15PPgiMbGxuzs7Pv37+PUMynZoXsuoD62bNkC7S2hGo/aU7g2MxpAGVEjHMj5TuIywWZ2sbhxmMDo7Ow0GAyQqbZu3Yq1GWmyY5hTp04dPHiwv78fu/vwf0h3WJZEElzEkiJHOJJ+/Pgxbdq0srKy48eP44ZjAwn/wOzcuZPn+c+fP/+xxz+qUNfMDveyVr7Wv3Mva2aDLClzpFBiQH93dHSguyMk0S9PqMzv379TUlKgvKFSXgN/4ViHRL1q1SrNbYWMqt0W8m1hcYJTtCvEsiMb+MN+Y5Q5UiDp6dOny5cvR2sJIdmhvWRTU9Pq1auVpF200draWl9ff+zYMfIw6DSSk5MtFguubZcjKhusgY0QnhHE21PoEJQkWMyOHTtevHjx7Nkz0QYlQTXIdzo8Hk9GRkZ+fn55ebnm98UQ1Snj33hsaGiorKwUNaf4Txu8Xu/p06d7e3vPnj0bNidHZxccIwBlWUlRUQ8ODlqtVrgHuNV58+YFZ1NWdjCN1XXdyLKmDx8+QDWaP3/+pUuXolSNCOr07du3BQUFz58/nzhxonh9Sp82ADZu3JiXlwdJ/m+QhG4qSg8E9RVWyANDt2/frqioqKmpSU1NHd76Vlb8AeHgbW8v8QMUfPT1AuYh27Vr18KFC0tLS6XLI72RbW5uhgW3tLSQF/yH3icJnM2VP7o3Gf6FCfZYuxAUKOHG/0EthyFp7ty5dXV1kGxFQ8J82gAaB7L6x48foT4RjI3Hl356gJykX79+gbuhxkjcjQYSonNAiN68eXPp0qUEY5QkdZCTNDAwkJiYKGufI/kOLC0tDZQeWcFTktRBThK4ETpxqC4Gg0E8BinMcrWUkJAAanbRokUEY5QkdcD4Oysrq7i4WPRNJEY1yN6a9/T0mM3mvr4+sSBEQUlSA6w6ra6uhjb22rVrokGyTxtkHDFnzpzp7u4+f/482RwlSTOAdrBYLGVlZdnZ2YzCt3biZqmrqwvC7t69e2Rpx1CStIXH4zlw4AAUmP37c7CfnwR3g0HR3bp1i2VZaK3CTktJ0h5u979FMwtdxH+PcbvdSt8GoaAk6QCUJB2AkqQDUJJ0AEqSDkBJ0gH+A+k1M+CrE7KcAAAAAElFTkSuQmCC&quot; width=&quot;140&quot; height=&quot;54&quot;&gt;" style="whiteSpace=wrap;html=1;rounded=0;" vertex="1" parent="1">
          <mxGeometry x="2500" y="1410" width="180" height="80" as="geometry" />
        </mxCell>
        <mxCell id="Imz78E6qO1Tw3Q3wVGVy-93" value="" style="edgeStyle=orthogonalEdgeStyle;rounded=0;orthogonalLoop=1;jettySize=auto;html=1;" edge="1" parent="1" source="Imz78E6qO1Tw3Q3wVGVy-94" target="Imz78E6qO1Tw3Q3wVGVy-96">
          <mxGeometry relative="1" as="geometry" />
        </mxCell>
        <mxCell id="Imz78E6qO1Tw3Q3wVGVy-94" value="&lt;div&gt;计算平均值&lt;/div&gt;&lt;img src=&quot;data:image/png;base64,iVBORw0KGgoAAAANSUhEUgAAAKQAAAA3CAIAAAANJXb7AAAFcUlEQVR42u2aTUjjWhTHUxEd0AFd6Fs8UHGhQ1P8woU6KxVmMQvt4qVVEXcqungbF4Jg06hrERHFb9CFNgFRUFyIVniL6kJQXqMgPsUvBEFURtwNvtuk7SRp0qZtkma4978QadKbe8+v59xzT47l4+MDQ4JDFgQbHiHYEAnBhkgINkRCsCESgg2REGyIhGBDJAQbIiHYEAnBhkgINkRCsCESgg2REGyIhGBDJAQbIsEKm2UoimIJP02keiYGCkLYLOOgGALHKDdGfiDYMIilbDY2GdiBAdwsRtDBMRiHxcFguNvvJ/FUL05BCHZyQ4hx205J86LWFrbFYoly9fr6uqCgINXrDUsb2BRGnLoZgvdmqGD/VtIIttVPntpsPG4E26xShG232zc2NqJ/mTcaD5smArs1BmI5BhPs4B4mr/DOZhIpwr65uSksLBwcHBwaGpJcmp2d7erqwqSw+eQMo2mMih+2kUbTHDbGp6Pc/1ZuruCo43QwVvPAZimH083wBsZxgvDQEkAHBwe1tbWyvPm8RAqbWy5IxTHCkxBsg4ymMWwnFlytYN4Y98tnCNPAViPeiVdWVlpaWiI/j4AthmZWo+m1Z4vn/VvK5XINDw/7fL6amhqlFQoOXgE4FJ7UKVtno7EItqIeHx+BE4Nk7fj4uLy83IAn6mw0JlWwg7VpD03gct91sqTsJdHcuZKVsjQoZp2fn5eWljY3N8/MzOTn5+thqHiMluzoKYEtoSlImHDCzadL/C0meE+xt7fX2NgIeK+vr+v9rChGe35+npycrK+vr6urk1xaWFhIS0trb29PT0+PPnoKYAtTkvCN/gB5LqclQv6Y/B4Yoeg1PiVT9Pb2VlZWdnZ26mEoNUZ7eXlpamoaGxurqqri7xN4B/2v56+lpSWv17u4uMgtUOlUmYIwLmEYqkiEkhxBXSJGkcuAMI5xnr2/vx95BjPSaOBEAGC3tbVJDSg4D/T09FRUVHR3dyvbzfgETeqvQs/GYtxruE5OTkiSNGbDVjLa/f09iCt3d3cZGRmhm2RQHh0ddXR0+P3+KNFLL9ic28n4ltiRfy2RDQQkD0ngwtvFYd1o8dn4+Pi4wvubeKrr6nolZI0GQrTH49na2hLZK8I9AMfs7Oyzs7Mfi9+BOWVrb7rAFgRY6dQVnJUzBtiGAHGhQVLq2na7HUxK+dClErbaXgklo42MjFxdXc3Pz4sezW3auJvzj9CnxcXFy8vLX7/mKE3M6BchUfEF1nsqXKjmsFV3HLhcLqvVKimfAb2+vubk5Ozu7jY0NMT74MResg0MDDw9PU1PT0cMyVBOhzDwlZSUTExMfPv2p4lgi8K4qOQovapHGFfTcbC6ugp2yr6+vsiv8+VSAPuPf/4ORUuFTFH0E0oc9tTU1M7Oztramrw1Bc6Qm5vr8/m+fPlpFthSZxXyBAHPJvJsmQ0+acXsOODfgkQfhKuhfo6HX+KwDw8PQR5+cXERzLy4kjl/Ug28LAntDbe3t2VlZQ8PD58+/Wca2BG0wYwphuUPjbibFGxCGvQXRCpmx0H0szgvruvmhzGwASBwvAYRpbq6mrMfWICbDb6z+5XijI6Ogowd/I3yrBQ0L4iLKsrSJzvTruMgbFN9wzjGBZL+/n4QzDMzM2VvuLy8bG1t3dzczMvLMxdsVcVv3cqlmnQchEYywrN5eb3eubk5gBzEasklmqa3t7dJkiwqKgrbTtabUtWWpMGLkAQfrEXHQWgkVfxi9kqoFCD1/v6elZUl+fzt7Q2csNUYD7oeNE06DsJf1jyl0FWQwday40Bt7mEeQQZbM+m61eglBBsiIdgQCcGGSAg2REKwIRKCDZEQbIiEYEOk/wERbu97q9Pv2QAAAABJRU5ErkJggg==&quot; width=&quot;164&quot; height=&quot;55&quot;&gt;" style="whiteSpace=wrap;html=1;rounded=0;" vertex="1" parent="1">
          <mxGeometry x="2885" y="1115" width="200" height="90" as="geometry" />
        </mxCell>
        <mxCell id="Imz78E6qO1Tw3Q3wVGVy-95" value="" style="edgeStyle=orthogonalEdgeStyle;rounded=0;orthogonalLoop=1;jettySize=auto;html=1;" edge="1" parent="1" source="Imz78E6qO1Tw3Q3wVGVy-96" target="Imz78E6qO1Tw3Q3wVGVy-97">
          <mxGeometry relative="1" as="geometry" />
        </mxCell>
        <mxCell id="Imz78E6qO1Tw3Q3wVGVy-96" value="&lt;div&gt;计算标准差&lt;/div&gt;&lt;img src=&quot;data:image/png;base64,iVBORw0KGgoAAAANSUhEUgAAAPYAAAA1CAIAAAD9DIGFAAAILElEQVR42u2dW0gUXxzHx+4vf4gu/s0wHxKLXaFMuywRRNENkjT+s1vQaxsa6ENPXXR2zOi9ILBEKIhyx25kBUVR/B8KSrNyNojQrbDM6EH+9ODC5v+3M3uZndvOjHPm5Mz5Psi6np3zPed8PPP7nTNHi6ampigiIveqiCBO5G4RxIlcLoI4kctFECdyuQjiRC4XQZzI5fIK4m/fvr1y5QpuF0QOae3atYcOHRJfewXxzs7O9vb2LVu24DZC5IQCgUBLS4v42iuIMwzz5cuX7u5u3EaInJZXEA+Hw8XFxR0dHbiNEDktryBeV1e3Z8+epqYm3EaInJZXEK+pqTl16lRDQwNuI0ROyyuIl5aW3rp1a+PGjbiNEDktTyCeTCbnzZsXj8fLysoKFOU5lmV5eihK4zZNZJM8gfi3b99gFk8kEnPnztUuxXNBlqP9FBuhmCmCuGvkCcQHBgZ27949Pj5uoCzPVlXxtiOeumqEp+ho+sJcsCjIUf7I0BDjx907bpcnEL93797JkycHBwcNlEWDuBrkVTGGAO6APIH4pUuXINe8f/++gbIIEWcpOhbhaHHmJog7JU8g3t7e/vnz566uLgNlUSLuG2JiVVUi5G5HvKioSOennz59WrFihW2VQRoVCnI8vPLTUflSgScQb2xsXLp0KYBuoCxaxKN0KgqnIFqhXI64g4IuZf3CvVGIBn3R/NHzBOL79u2DdBNAN1DWHOL19fV37tzRLyP2cAZxMdWkolGKtYi4mKoK8li+ms5nBNFRtTFSG70CiKfuACzHi5f1+2mmJ0rPvC7dsGEDpJsAun4xng2GIly2rXRPtCA+EP+Ul5e3trYqbxGQAITDYUqJuDAOHOWn6B7LiMcybEtHXSF1DJwRQmOqc3W2b9ITek56iAuXoiLRHiaFdfq7mThtlJWV3bx5c/369Sgu/uLFi0AgoEq5GI8qEJ9mXyoRT19JMvRicOrDjTgaY5qIQ37DKXftdBBXXAneCFHWZh6M+v379/z58+Px+PLlyxFVIU7Y165dO3DggPL9VA/LlwxVpxuDkiOeHZP8AYNiHI0VcVTG1BHXpLMQ4jNz2pZqfHy8pKQkkUjMmTMHXS1tbW2nT59+/vz5pk2bEDcoD3GpdG7geGWzMZXL6c2+BQMV3k9HZ2QAntGbN2927do1NjaGtBb4RYIJG1LPwcHBNWvWoKwKI+KSTDdf+nkvasSlQSAkVL3/5CVRBdJNiG6E9UY/HWEYxiHQNTvSUH/K9eDBA8g1BwYGUNv+8OHDqlWrIKm9ePFicXEx0u4hiOcuJ09s5V4MLBpmV1VUltVngLq7uyHX7Ovrc6CuJ0+ebN++HSi/ffs2skosIp56hpKjaJioqNzKUeoW7edYnmZyN2r7dwZ0jBl2ZbidChldFwcroSBELamupdTWg6TrQFZ8I9OZM2cg14TML91g3V0349Lqt6ampurq6sOHDyNrkBXEJbGqJNHN3uDzQlnnEDfjylg71WRi6yd7ZV/ag7C+m96NziXJFn3LxtC+QOXo0aNLlixhWdauAdMRzOJPnz41to1qWeYRl69uqACMdLWs8BKIKVf2IS5f3FGL8qsyTxX9Kb2p1P79+yHdPHLkCOqKIK+FfAVxIE5ZQDy/w9OlhmT30sxg+YRbtL2bRqrGTLmiC15OW/qIBzk6UysvZJ55TVdB3LpvZAoEAidOnKirq0Nai7iicu7cOY2ni8y0ucDJI03EhQFT3uKUVae3cf2ZXb1MMXHo7B8eNWNmXckaZFOgIuSZMT6zfa9YVFEiPg3fyFReXn7jxo3a2lqktdTX1wOX2suFBrkxcvJIHXHtJ1e0bqap7EoyfNliNiOuYcysK1lfoonFleNhAHHDvtEIWrdgwYKRkZHS0lJpB5k+gKM7s7a1tfl8PtnWJmhiYmLhwoWPHz/etm2b2Y7lTSJu5Wp5W6yoELfJleyjfxriRnyj0c+fPyEynpyclG5tmjyAU2BmvX79+ujo6LFjx5SfFDfwAfG//23OBLgauXTerxhKxIUMSwgdhcdFck1CGKjY4Ur20T8EcVO+7VAikXj9+rX0L0m8e/cOcs2vX7/KfJs/gKM+8OIzWPquhF39v8xwYy/i+d3NQeMj2dgzt9GRq9OhCcikK1n3OIJ4djqitZ7UMuV7ekomk1evXo1EIt+/f//48eOyZcvE9x8+fHj8+PH+/n5ZF5k/gKNu2sgqu3DC5T97ETf3vLiBDpcMnFP3WHOuMp/Qf15cTXYfiTDv2xb19fXFYrHKysqGhobGxsYLFy6I71++fLm3t/fu3bsyA+oHcJRBRI6haQ589uPTD1QsVh/iGc29afnWj0OLAWZcWZf9p36c8a0qaMuOHTuePXv2/v37iooKeOfs2bPxeLyzs1NmwfwBHLsQt72wYQfZLWf5RkpQsuUsjp5zz90ZczUtITnY5oBvLUFMUltbGwqFIAuEb5ubmxcvXswwTL4NCwdwHELcwskjIn258OzmwYMHge9Xr17V1NTQNL1z507ZEyOWDuA4OYsT2SkXIj48PLx69eqtW7dCrrl582ZIN/fu3Zv7sfkDOHbMrDPzxJQr5ELEKSE+OX/+/KNHj8LhMKSb69atw2rH6QCXSCp3Iv7jx4+VK1dWVlbyPD8yMlJSUoLbERE2uRNxUEdHR2tr6+zZsycnJ+ErbjtE2ORaxH/9+lVRUTFr1qzR0VHcXohwyrWIU8I/Iuzq6nr58iVuI0Q45WbEk8nkxMTEokWLcBshwik3I05ERBHEiVwvgjiRy0UQJ3K5/gdrCwUPB0axawAAAABJRU5ErkJggg==&quot; width=&quot;246&quot; height=&quot;53&quot;&gt;" style="whiteSpace=wrap;html=1;rounded=0;" vertex="1" parent="1">
          <mxGeometry x="2820" y="1245" width="330" height="100" as="geometry" />
        </mxCell>
        <mxCell id="Imz78E6qO1Tw3Q3wVGVy-97" value="&lt;div&gt;计算变异系数&lt;/div&gt;&lt;img src=&quot;data:image/png;base64,iVBORw0KGgoAAAANSUhEUgAAAHEAAAAxCAIAAABiRNHrAAAC/0lEQVR42u2Z7YGDIAyGcR3pFJ3hpOOg4yi3QrfQruMBWgQB62nUtub91Sr142lIXkLSti1BgSpBpuBCpvBCpvBCpvBCpvBCpvBCpvBCpvA6K9OmYLdcNOojzaq6ygCvfU6mgiUFrWtOFdxLkSLT1ZIcLw1vQUFaOiVTDTVP1ZSnG1z9nEyJSag0r0quyMp0wMRwmuZdaiCNKIpHynn6+0zAWdXyBysIr3j4HzktUy0J7MZEpvAJxkhVpV12TQv2+6OQCXZ58Lr7IMdVWSMkzUplDfmDRxjruZkSp1yRccWyvimmtHQQRqvbKZlKjjroqAxUdmNkKFcuJxOl+pQcKrNANoB1Tls6J1NJLm+0OR25U4ep/HIjpQNNgdV/hzfY0j+Yqmxd9D5ZPgvNsjKWpT9WsTjVx0sZ2TbntXGq3Yepkjq35ySv66+C2r2kKuzjQJTxeelswRDXK/NpdzNzr/7QeGJ8oWKhSFbXfY3066Jynp7+1FkdSHO70p8GohQ1oTlM9RKDvmmYjtY/ng547vVM+8RO+tQ++uqMsDUUAjm5BMnk7CJO/62komgyvs2S/HCmL+e+gk6G09pSt77pU9d5LgT7EValC/XftimESZKAc7QxzqpRLye/s8CL1sqB6XDAIIv0315S/dC5H4TqvqwFNW4/xkzdS0T6bxv3Oo9j+rT8MsvpV/Y9v4E64ehGTH1a4/5bgDzsy4eSwP1+v16vOzAlfQ9BNNbSlNuurU+RJI70NdP+Pqb/NjXsjQXWQ+levSKi6y7GhsyC5aTnDZlOG5LFgutLBdzByABMMo323zac+xOG5D2Y+gHlQesKtN2iGGjF+m97TH3PkKzThv1TUbDHz2Q3cAavXVo1n8N05tvcGl5PZOA9ml8Bpgu29oyO7/MPa1P3UVXvZ6e1qcd00dae0fFM30B+8VyytWeETInHdOHWnhEy9QzJ0q09I2Tqa+HWnhEy9bVwa88ImYa0aGvPCJmGtWBrzwiZwguZwguZwguZwguZwguZwusPJKilzFjphU0AAAAASUVORK5CYII=&quot; width=&quot;113&quot; height=&quot;49&quot;&gt;" style="whiteSpace=wrap;html=1;rounded=0;" vertex="1" parent="1">
          <mxGeometry x="2895" y="1405" width="180" height="80" as="geometry" />
        </mxCell>
      </root>
    </mxGraphModel>
  </diagram>
</mxfile>
